<?xml version="1.0" standalone="no"?>
<!DOCTYPE svg PUBLIC "-//W3C//DTD SVG 20010904//EN"
 "http://www.w3.org/TR/2001/REC-SVG-20010904/DTD/svg10.dtd">
<svg version="1.0" xmlns="http://www.w3.org/2000/svg"
 viewBox="0 0 512.000000 512.000000"
 preserveAspectRatio="xMidYMid meet">

<g transform="translate(0.000000,512.000000) scale(0.100000,-0.100000)"
fill="#000000" stroke="none">
<path d="M2405 5014 c-240 -19 -495 -74 -704 -153 -840 -317 -1436 -1055
-1573 -1946 -28 -183 -30 -501 -5 -680 76 -534 320 -1026 697 -1406 372 -375
855 -619 1385 -701 198 -30 512 -30 710 0 522 81 997 317 1365 681 385 380
629 860 712 1396 30 198 30 512 0 710 -124 805 -615 1480 -1343 1845 -241 122
-485 197 -758 235 -113 15 -392 26 -486 19z m356 -314 c397 -39 776 -186 1095
-426 98 -73 275 -244 360 -346 312 -374 494 -877 494 -1368 0 -410 -130 -844
-355 -1180 -220 -329 -517 -589 -865 -757 -650 -314 -1429 -275 -2046 102
-195 119 -393 290 -540 467 -268 320 -442 741 -484 1167 -51 527 102 1065 426
1497 73 98 244 275 346 360 428 358 1014 538 1569 484z"/>
<path d="M3421 3314 c-21 -9 -248 -230 -595 -579 -309 -311 -566 -565 -571
-565 -6 0 -125 115 -265 256 -140 140 -267 262 -282 270 -58 31 -137 13 -188
-41 -22 -23 -25 -36 -25 -96 l0 -69 340 -340 c372 -372 375 -375 458 -351 36
11 124 95 675 644 348 348 640 644 648 659 21 40 18 117 -6 156 -22 35 -88 72
-130 71 -14 0 -40 -6 -59 -15z"/>
</g>
</svg>
