<?xml version="1.0" standalone="no"?>
<!DOCTYPE svg PUBLIC "-//W3C//DTD SVG 20010904//EN"
 "http://www.w3.org/TR/2001/REC-SVG-20010904/DTD/svg10.dtd">
<svg version="1.0" xmlns="http://www.w3.org/2000/svg"
viewBox="0 0 512.000000 512.000000"
 preserveAspectRatio="xMidYMid meet">

<g transform="translate(0.000000,512.000000) scale(0.100000,-0.100000)"
fill="#000000" stroke="none">
<path d="M1150 4743 c-19 -2 -82 -12 -140 -23 -539 -101 -890 -457 -984 -1000
-50 -288 -27 -521 78 -793 59 -152 91 -214 185 -354 154 -230 248 -327 1226
-1270 512 -493 944 -904 960 -915 40 -24 130 -24 170 0 35 22 1689 1610 1853
1780 336 348 516 653 599 1012 24 106 24 398 -1 535 -27 148 -61 258 -116 370
-166 339 -457 552 -866 636 -145 29 -429 37 -549 15 -119 -23 -250 -67 -360
-122 -167 -84 -433 -275 -582 -417 l-63 -60 -62 60 c-150 143 -418 334 -583
416 -203 101 -360 138 -582 135 -81 0 -164 -3 -183 -5z"/>
</g>
</svg>
