<?xml version="1.0" standalone="no"?>
<!DOCTYPE svg PUBLIC "-//W3C//DTD SVG 20010904//EN"
 "http://www.w3.org/TR/2001/REC-SVG-20010904/DTD/svg10.dtd">
<svg version="1.0" xmlns="http://www.w3.org/2000/svg"
 width="512.000000pt" height="512.000000pt" viewBox="0 0 512.000000 512.000000"
 preserveAspectRatio="xMidYMid meet">

<g transform="translate(0.000000,512.000000) scale(0.100000,-0.100000)"
fill="#000000" stroke="none">
<path d="M2425 5114 c-424 -42 -779 -207 -1070 -499 -406 -405 -579 -983 -465
-1546 25 -122 69 -257 121 -368 22 -47 360 -665 752 -1374 745 -1350 731
-1327 797 -1327 66 0 52 -23 798 1327 391 710 730 1328 751 1374 186 400 205
883 52 1296 -90 241 -217 440 -396 618 -259 260 -560 415 -930 481 -80 14
-335 26 -410 18z m350 -226 c407 -54 792 -298 1026 -648 297 -445 332 -1018
91 -1496 -96 -191 -1322 -2399 -1332 -2399 -10 0 -1237 2210 -1332 2399 -367
729 -75 1625 649 1993 289 147 573 195 898 151z"/>
<path d="M2460 4259 c-363 -42 -663 -320 -736 -683 -20 -96 -14 -289 11 -381
26 -94 99 -237 164 -317 108 -135 255 -232 426 -284 80 -24 106 -27 235 -27
129 0 155 3 235 27 237 72 424 231 530 449 59 124 75 190 82 333 6 135 -9 233
-52 344 -94 241 -305 436 -550 509 -60 18 -228 43 -260 40 -5 -1 -44 -5 -85
-10z m250 -225 c175 -41 340 -172 419 -334 54 -110 75 -209 68 -320 -16 -246
-156 -449 -380 -550 -86 -38 -158 -53 -257 -53 -341 0 -615 259 -637 603 -7
111 14 210 68 320 78 160 243 293 414 334 80 19 224 19 305 0z"/>
</g>
</svg>
