<?xml version="1.0" standalone="no"?>
<!DOCTYPE svg PUBLIC "-//W3C//DTD SVG 20010904//EN"
 "http://www.w3.org/TR/2001/REC-SVG-20010904/DTD/svg10.dtd">
<svg version="1.0" xmlns="http://www.w3.org/2000/svg"
 width="512.000000pt" height="512.000000pt" viewBox="0 0 512.000000 512.000000"
 preserveAspectRatio="xMidYMid meet">

<g transform="translate(0.000000,512.000000) scale(0.100000,-0.100000)"
fill="#000000" stroke="none">
<path d="M2532 4787 c-1838 -1581 -2429 -2092 -2439 -2111 -25 -44 -16 -64 69
-151 46 -46 508 -500 1027 -1009 915 -898 944 -926 981 -926 33 0 51 11 151
98 63 53 697 598 1410 1210 796 682 1299 1121 1303 1134 11 44 7 2015 -5 2041
-6 14 -22 30 -36 36 -17 8 -319 11 -1049 11 l-1024 0 -388 -333z m2348 -759
l0 -933 -1347 -1155 c-741 -635 -1350 -1156 -1354 -1158 -6 -3 -1882 1833
-1890 1850 -2 4 603 530 1344 1168 l1348 1160 950 0 949 0 0 -932z"/>
<path d="M4003 4655 c-199 -54 -343 -243 -343 -450 0 -210 133 -387 339 -451
59 -18 193 -18 252 0 208 64 339 239 339 451 0 260 -209 467 -470 464 -36 0
-89 -7 -117 -14z m253 -176 c114 -55 179 -167 172 -295 -8 -120 -71 -209 -186
-262 -76 -34 -183 -29 -261 13 -163 89 -211 299 -102 447 37 50 99 96 154 114
60 20 164 12 223 -17z"/>
<path d="M2908 3677 c-15 -7 -157 -129 -315 -273 -158 -143 -307 -277 -331
-299 l-43 -38 -52 51 c-38 38 -60 52 -80 52 -40 0 -62 -15 -76 -49 -16 -37 3
-81 54 -131 l35 -34 -53 -47 -52 -47 -51 54 c-59 63 -97 71 -139 29 -38 -37
-33 -74 20 -136 25 -29 45 -55 44 -58 0 -3 -28 -30 -62 -60 -34 -30 -108 -97
-164 -148 -93 -85 -103 -98 -103 -129 0 -41 37 -84 72 -84 32 0 52 15 221 168
l149 135 22 -24 c13 -13 90 -98 172 -189 82 -91 156 -170 164 -177 18 -15 65
-17 89 -3 27 14 44 61 33 91 -5 13 -87 109 -181 213 -94 104 -171 193 -171
196 0 10 88 90 97 89 5 -1 57 -55 118 -122 121 -133 193 -186 293 -217 207
-64 414 -10 573 149 117 118 169 240 169 401 0 101 -19 181 -62 262 -30 56
-309 378 -328 378 -4 0 -14 2 -22 5 -7 2 -25 -1 -40 -8z m135 -310 c111 -125
146 -189 154 -286 11 -129 -28 -233 -123 -329 -73 -73 -144 -109 -235 -120
-162 -19 -239 17 -393 181 -61 65 -112 122 -114 126 -4 13 599 554 608 544 4
-4 51 -56 103 -116z"/>
<path d="M4924 2544 c-6 -3 -627 -533 -1380 -1179 l-1369 -1174 -985 983
c-542 541 -995 987 -1008 991 -59 17 -116 -46 -93 -103 18 -44 2030 -2049
2064 -2058 16 -3 37 -3 48 2 32 15 2806 2397 2823 2426 23 37 20 65 -9 93 -22
23 -61 31 -91 19z"/>
</g>
</svg>
