<?xml version="1.0" standalone="no"?>
<!DOCTYPE svg PUBLIC "-//W3C//DTD SVG 20010904//EN"
 "http://www.w3.org/TR/2001/REC-SVG-20010904/DTD/svg10.dtd">
<svg version="1.0" xmlns="http://www.w3.org/2000/svg"
 width="512.000000pt" height="512.000000pt" viewBox="0 0 512.000000 512.000000"
 preserveAspectRatio="xMidYMid meet">

<g transform="translate(0.000000,512.000000) scale(0.100000,-0.100000)"
fill="#000000" stroke="none">
<path d="M63 5104 c-52 -26 -63 -64 -63 -213 0 -223 11 -234 248 -241 l164 -5
362 -1190 362 -1189 -154 -181 c-87 -101 -167 -205 -183 -237 -83 -164 -76
-326 19 -474 76 -117 186 -185 332 -204 60 -7 577 -10 1755 -8 1576 3 1671 4
1696 21 43 29 49 57 49 218 0 159 -6 185 -54 212 -16 9 -414 13 -1704 17
l-1684 5 173 200 c94 110 181 212 192 228 l21 27 1117 0 c746 0 1143 4 1195
11 159 22 288 113 362 257 103 199 824 1749 837 1800 51 193 -37 384 -212 465
l-48 22 -1974 5 -1974 5 -13 40 c-7 22 -32 101 -54 175 -39 125 -45 138 -89
180 -68 66 -89 70 -387 70 -215 0 -264 -3 -291 -16z"/>
<path d="M1301 919 c-79 -15 -169 -65 -232 -128 -182 -182 -181 -469 3 -653
252 -252 685 -132 772 214 83 331 -206 633 -543 567z"/>
<path d="M4090 919 c-72 -14 -167 -67 -224 -124 -81 -80 -122 -162 -136 -270
-29 -224 118 -446 335 -506 65 -18 186 -18 250 0 334 95 449 521 206 768 -114
115 -270 163 -431 132z"/>
</g>
</svg>
