<?xml version="1.0" standalone="no"?>
<!DOCTYPE svg PUBLIC "-//W3C//DTD SVG 20010904//EN"
 "http://www.w3.org/TR/2001/REC-SVG-20010904/DTD/svg10.dtd">
<svg version="1.0" xmlns="http://www.w3.org/2000/svg"
 width="512.000000pt" height="512.000000pt" viewBox="0 0 512.000000 512.000000"
 preserveAspectRatio="xMidYMid meet">

<g transform="translate(0.000000,512.000000) scale(0.100000,-0.100000)"
fill="#000000" stroke="none">
<path d="M4189 4577 c-104 -29 -183 -100 -220 -197 -18 -49 -19 -108 -19
-1820 0 -1762 0 -1769 21 -1824 26 -70 92 -139 167 -174 l57 -27 285 0 285 0
56 26 c69 33 127 89 160 155 l24 49 3 1782 c2 1780 2 1782 -19 1837 -26 70
-92 139 -167 174 -57 27 -58 27 -322 29 -189 2 -278 -1 -311 -10z m554 -218
c13 -6 31 -23 40 -39 16 -26 17 -162 17 -1760 0 -1598 -1 -1734 -17 -1760 -9
-16 -27 -33 -40 -39 -32 -15 -494 -15 -526 0 -13 6 -31 23 -40 39 -16 26 -17
162 -17 1760 0 1600 1 1734 17 1760 9 16 26 33 37 39 29 14 498 14 529 0z"/>
<path d="M2900 3721 c-85 -27 -159 -90 -201 -171 l-24 -45 -3 -1357 c-2 -1352
-2 -1357 18 -1412 27 -70 93 -139 168 -174 l57 -27 285 0 285 0 56 26 c69 33
127 89 160 155 l24 49 0 1370 0 1370 -24 45 c-32 61 -86 116 -146 148 l-50 27
-290 2 c-159 1 -301 -2 -315 -6z m587 -234 l28 -27 3 -1313 c3 -1200 2 -1315
-13 -1343 -9 -18 -28 -37 -41 -43 -34 -15 -494 -15 -528 0 -13 6 -32 25 -41
43 -15 28 -16 142 -13 1342 3 1296 3 1312 23 1334 11 12 29 26 40 31 11 4 131
7 267 6 l248 -2 27 -28z"/>
<path d="M1602 2861 c-29 -10 -70 -32 -90 -48 -46 -36 -98 -112 -112 -161 -6
-24 -10 -359 -10 -949 0 -897 0 -913 21 -967 26 -70 92 -139 167 -174 l57 -27
285 0 285 0 56 26 c69 33 127 89 160 155 l24 49 0 945 0 945 -23 43 c-35 66
-88 119 -150 149 l-57 28 -280 2 c-251 3 -285 1 -333 -16z m573 -205 c68 -29
65 21 65 -951 0 -800 -1 -879 -17 -905 -9 -16 -27 -33 -40 -39 -32 -15 -494
-15 -526 0 -13 6 -31 23 -40 39 -16 26 -17 105 -17 905 0 968 -3 922 63 950
47 21 464 21 512 1z"/>
<path d="M310 2432 c-28 -11 -68 -40 -105 -77 -101 -101 -95 -49 -95 -862 0
-685 1 -704 21 -757 26 -70 92 -139 167 -174 l57 -27 285 0 285 0 56 26 c69
33 127 89 160 155 l24 49 0 730 0 730 -27 51 c-34 65 -111 134 -174 157 -42
15 -86 17 -329 16 -236 0 -287 -3 -325 -17z m617 -225 l28 -27 3 -673 c3 -608
1 -675 -13 -703 -9 -18 -28 -37 -41 -43 -34 -15 -494 -15 -528 0 -13 6 -32 25
-41 43 -14 28 -16 95 -13 702 3 656 3 672 23 694 11 12 29 26 40 31 11 4 131
7 267 6 l248 -2 27 -28z"/>
</g>
</svg>
