<?xml version="1.0" standalone="no"?>
<!DOCTYPE svg PUBLIC "-//W3C//DTD SVG 20010904//EN"
 "http://www.w3.org/TR/2001/REC-SVG-20010904/DTD/svg10.dtd">
<svg version="1.0" xmlns="http://www.w3.org/2000/svg"
 width="512.000000pt" height="512.000000pt" viewBox="0 0 512.000000 512.000000"
 preserveAspectRatio="xMidYMid meet">

<g transform="translate(0.000000,512.000000) scale(0.100000,-0.100000)"
fill="#000000" stroke="none">
<path d="M500 4690 c-21 -21 -26 -69 -10 -100 20 -38 56 -40 604 -39 292 1
542 4 556 8 36 10 61 64 48 102 -6 16 -18 34 -28 39 -12 6 -234 10 -584 10
-553 0 -566 0 -586 -20z"/>
<path d="M2172 4687 c-35 -37 -26 -103 15 -123 10 -5 181 -11 381 -14 l362 -5
-749 -432 -750 -433 -686 0 -687 0 -29 -29 c-36 -36 -37 -73 -4 -106 l24 -25
661 0 660 0 0 -440 0 -440 -419 0 c-408 0 -419 -1 -445 -21 -37 -29 -37 -89 0
-118 26 -20 37 -21 445 -21 l419 0 0 -440 0 -440 -660 0 -661 0 -24 -25 c-33
-33 -32 -70 4 -106 l29 -29 687 0 686 0 893 -515 c613 -354 901 -515 921 -515
19 0 123 54 304 159 152 88 553 319 891 514 338 195 630 368 648 385 l32 29 0
1063 0 1063 -32 30 c-18 16 -433 260 -923 543 l-890 514 -541 0 -541 0 -21
-23z m1897 -621 c665 -385 809 -471 794 -479 -10 -6 -115 -66 -233 -135 -118
-69 -220 -125 -226 -125 -8 0 -1200 676 -1577 895 l-68 40 238 138 c131 76
243 138 249 137 6 -1 376 -213 823 -471z m-699 -339 c404 -231 766 -437 803
-459 l69 -40 -180 -104 -181 -104 -815 467 c-449 257 -815 471 -814 475 2 5
80 53 173 107 141 81 173 96 190 88 11 -6 351 -199 755 -430z m-467 -332 l818
-467 -233 -135 c-128 -75 -237 -136 -243 -136 -7 0 -1614 923 -1633 938 -4 4
462 273 468 270 3 -2 373 -213 823 -470z m2045 -1830 c-14 -13 -1590 -922
-1613 -931 -13 -6 -15 105 -13 937 l3 943 238 137 237 137 0 -350 0 -350 30
-30 c24 -24 37 -29 59 -25 28 6 543 297 571 324 13 12 16 76 20 420 l5 407
235 135 235 136 3 -940 c2 -743 -1 -942 -10 -950z m-2597 1418 l809 -467 0
-943 0 -944 -22 12 c-13 7 -352 202 -754 434 -402 233 -759 438 -792 456 l-62
34 0 943 c0 518 3 942 6 942 4 0 371 -210 815 -467z m1969 -210 l0 -318 -132
-75 c-73 -41 -153 -88 -180 -103 l-48 -28 2 318 3 317 175 102 c96 56 176 103
178 103 1 1 2 -142 2 -316z"/>
<path d="M1705 3015 c-30 -29 -33 -74 -7 -103 17 -20 784 -467 833 -485 48
-19 109 24 109 77 0 27 -41 65 -117 108 -43 24 -227 131 -410 236 -198 114
-343 192 -358 192 -14 0 -37 -11 -50 -25z"/>
<path d="M1705 2645 c-27 -26 -33 -71 -12 -98 17 -22 425 -257 459 -264 21 -4
34 1 59 26 26 27 30 37 25 64 -4 17 -12 37 -19 43 -34 33 -435 254 -460 254
-16 0 -38 -10 -52 -25z"/>
</g>
</svg>
