<?xml version="1.0" standalone="no"?>
<!DOCTYPE svg PUBLIC "-//W3C//DTD SVG 20010904//EN"
 "http://www.w3.org/TR/2001/REC-SVG-20010904/DTD/svg10.dtd">
<svg version="1.0" xmlns="http://www.w3.org/2000/svg"
 width="512.000000pt" height="512.000000pt" viewBox="0 0 512.000000 512.000000"
 preserveAspectRatio="xMidYMid meet">

<g transform="translate(0.000000,512.000000) scale(0.100000,-0.100000)"
fill="#000000" stroke="none">
<path d="M3300 4701 c-49 -15 -106 -50 -142 -88 -55 -57 -80 -122 -86 -225
l-5 -88 -1284 0 c-926 0 -1290 -3 -1306 -11 -63 -32 -77 -111 -28 -160 l29
-29 1295 0 1295 0 4 -87 c7 -150 77 -259 194 -303 50 -18 77 -20 318 -20 305
0 326 4 410 81 70 64 96 124 103 240 l6 89 253 0 254 0 29 28 c45 41 46 99 2
143 l-29 29 -255 0 -254 0 -6 83 c-9 116 -30 172 -92 233 -87 87 -118 94 -423
93 -141 0 -268 -4 -282 -8z m512 -201 c20 -6 46 -22 58 -37 19 -24 20 -39 20
-264 l0 -239 -29 -32 -29 -33 -228 -3 c-126 -2 -239 0 -252 3 -13 3 -35 18
-48 32 l-24 26 0 243 0 242 25 31 c14 16 36 32 48 34 47 9 424 6 459 -3z"/>
<path d="M1637 3053 c-64 -21 -140 -91 -172 -157 -20 -41 -28 -75 -32 -145
l-6 -91 -466 0 c-426 0 -468 -2 -487 -18 -44 -35 -55 -82 -30 -131 27 -50 33
-51 525 -51 l458 0 6 -91 c7 -113 36 -179 107 -242 79 -71 111 -77 404 -77
300 0 327 5 409 80 72 65 98 127 105 243 l5 87 1087 0 1087 0 26 24 c48 44 48
108 0 152 l-26 24 -1087 0 -1087 0 -5 88 c-7 115 -33 177 -104 241 -84 77
-105 81 -408 80 -212 0 -270 -3 -309 -16z m584 -221 l29 -32 0 -240 0 -240
-29 -32 -29 -33 -247 0 -247 0 -29 33 -29 32 0 239 c0 228 1 239 21 265 12 15
31 32 43 36 11 5 126 8 254 7 l234 -2 29 -33z"/>
<path d="M2855 1410 c-116 -45 -184 -153 -193 -301 l-5 -89 -1084 0 c-725 0
-1091 -3 -1104 -10 -23 -13 -49 -61 -49 -90 0 -31 29 -76 57 -89 17 -8 348
-11 1102 -11 l1078 0 5 -88 c8 -139 64 -233 172 -290 l51 -27 271 -3 c253 -3
274 -2 325 18 136 50 209 168 209 335 l0 55 466 0 466 0 34 34 c22 22 34 44
34 60 0 35 -25 83 -49 96 -13 6 -185 10 -484 10 l-464 0 -6 90 c-9 140 -57
223 -167 288 l-45 27 -285 2 c-263 2 -289 1 -335 -17z m591 -214 l34 -34 0
-240 c0 -226 -1 -241 -20 -265 -12 -15 -38 -31 -58 -37 -58 -16 -425 -13 -466
4 -64 27 -66 34 -66 301 1 253 1 254 50 288 21 15 54 17 258 17 l234 0 34 -34z"/>
</g>
</svg>
