<?xml version="1.0" standalone="no"?>
<!DOCTYPE svg PUBLIC "-//W3C//DTD SVG 20010904//EN"
 "http://www.w3.org/TR/2001/REC-SVG-20010904/DTD/svg10.dtd">
<svg version="1.0" xmlns="http://www.w3.org/2000/svg"
 width="512.000000pt" height="512.000000pt" viewBox="0 0 512.000000 512.000000"
 preserveAspectRatio="xMidYMid meet">

<g transform="translate(0.000000,512.000000) scale(0.100000,-0.100000)"
fill="#000000" stroke="none">
<path d="M1150 4743 c-19 -2 -82 -12 -140 -23 -539 -101 -890 -457 -984 -1000
-50 -288 -27 -521 78 -793 59 -152 91 -214 185 -354 154 -230 248 -327 1226
-1270 512 -493 944 -904 960 -915 40 -24 130 -24 170 0 35 22 1689 1610 1853
1780 336 348 516 653 599 1012 24 106 24 398 -1 535 -27 148 -61 258 -116 370
-166 339 -457 552 -866 636 -145 29 -429 37 -549 15 -119 -23 -250 -67 -360
-122 -167 -84 -433 -275 -582 -417 l-63 -60 -62 60 c-150 143 -418 334 -583
416 -203 101 -360 138 -582 135 -81 0 -164 -3 -183 -5z m332 -367 c265 -51
522 -211 843 -527 77 -76 153 -142 168 -148 16 -6 46 -11 67 -11 21 0 51 5 67
11 15 6 91 72 168 148 330 324 597 488 869 531 94 16 320 0 431 -29 179 -47
351 -143 444 -249 66 -74 143 -231 177 -357 31 -121 45 -372 25 -477 -42 -224
-163 -454 -366 -696 -79 -95 -1797 -1762 -1815 -1762 -18 0 -1736 1667 -1815
1762 -155 183 -264 365 -322 533 -39 115 -53 199 -53 328 0 258 61 467 183
633 123 167 371 287 642 313 139 13 207 12 287 -3z"/>
</g>
</svg>
