<?xml version="1.0" standalone="no"?>
<!DOCTYPE svg PUBLIC "-//W3C//DTD SVG 20010904//EN"
 "http://www.w3.org/TR/2001/REC-SVG-20010904/DTD/svg10.dtd">
<svg version="1.0" xmlns="http://www.w3.org/2000/svg"
 width="512.000000pt" height="512.000000pt" viewBox="0 0 512.000000 512.000000"
 preserveAspectRatio="xMidYMid meet">

<g transform="translate(0.000000,512.000000) scale(0.100000,-0.100000)"
fill="#000000" stroke="none">
<path d="M2395 5053 c-384 -178 -712 -307 -913 -357 -226 -57 -444 -77 -612
-57 -189 24 -215 24 -267 7 -65 -22 -127 -75 -161 -140 l-27 -51 0 -1100 c0
-1203 -2 -1164 60 -1441 79 -351 264 -729 500 -1019 103 -127 299 -315 435
-416 281 -210 558 -343 897 -429 204 -52 244 -55 372 -31 509 98 961 345 1331
727 374 387 609 879 682 1429 10 78 13 340 13 1190 l0 1090 -27 51 c-34 65
-96 118 -161 140 -52 17 -78 17 -267 -7 -111 -13 -295 -6 -425 16 -277 49
-506 130 -1024 364 -122 56 -233 101 -245 100 -11 0 -84 -30 -161 -66z m445
-226 c309 -139 504 -214 687 -267 263 -75 526 -104 733 -81 230 26 203 28 246
-12 l39 -35 0 -1079 c0 -1132 0 -1131 -46 -1353 -107 -519 -403 -1004 -822
-1343 -285 -232 -641 -401 -990 -472 l-127 -25 -102 20 c-920 185 -1649 907
-1837 1820 -46 222 -46 221 -46 1353 l0 1079 39 35 c43 39 26 39 236 13 213
-26 477 3 750 81 189 55 451 158 800 318 85 39 162 69 170 67 8 -2 130 -56
270 -119z"/>
<path d="M2415 4623 c-613 -282 -1022 -393 -1452 -393 -109 0 -112 -1 -133
-27 l-21 -27 4 -966 c4 -940 4 -968 25 -1080 77 -403 230 -728 486 -1028 274
-320 653 -554 1072 -662 144 -37 184 -37 328 0 419 108 797 342 1071 661 262
307 422 652 491 1059 16 94 18 202 21 1061 l4 955 -21 27 c-21 26 -24 27 -133
27 -417 0 -782 96 -1388 365 -106 47 -202 85 -213 84 -12 0 -75 -25 -141 -56z
m307 -183 c542 -241 864 -334 1256 -362 l172 -12 0 -832 c0 -828 -4 -955 -36
-1119 -133 -680 -625 -1249 -1276 -1473 -181 -63 -259 -77 -337 -63 -172 32
-448 146 -621 256 -180 115 -364 282 -492 446 -185 238 -321 531 -377 810 -37
189 -41 288 -41 1144 l0 832 128 7 c398 22 776 128 1297 365 83 38 154 69 159
70 6 0 81 -31 168 -69z"/>
<path d="M3432 3381 c-28 -10 -62 -27 -74 -37 -12 -10 -232 -230 -489 -489
l-467 -470 -239 236 c-267 265 -281 275 -395 267 -103 -7 -188 -63 -233 -153
-29 -58 -28 -185 2 -240 12 -22 178 -195 375 -392 346 -345 354 -352 412 -368
71 -21 134 -16 200 16 65 30 1198 1174 1239 1250 58 110 26 262 -71 336 -46
35 -126 63 -176 63 -17 -1 -55 -9 -84 -19z m138 -156 c41 -21 60 -53 60 -103
0 -42 -5 -49 -92 -140 -50 -54 -314 -321 -587 -594 -524 -527 -520 -523 -586
-498 -34 13 -658 629 -681 672 -25 48 -18 96 20 134 37 37 85 45 129 23 12 -6
146 -135 298 -286 l275 -274 515 522 c283 287 528 530 544 540 36 23 67 24
105 4z"/>
</g>
</svg>
