<?xml version="1.0" standalone="no"?>
<!DOCTYPE svg PUBLIC "-//W3C//DTD SVG 20010904//EN"
 "http://www.w3.org/TR/2001/REC-SVG-20010904/DTD/svg10.dtd">
<svg version="1.0" xmlns="http://www.w3.org/2000/svg"
 width="512.000000pt" height="512.000000pt" viewBox="0 0 512.000000 512.000000"
 preserveAspectRatio="xMidYMid meet">

<g transform="translate(0.000000,512.000000) scale(0.100000,-0.100000)"
fill="#000000" stroke="none">
<path d="M102 4443 c-43 -21 -79 -65 -94 -114 -22 -76 18 -164 97 -207 28 -16
213 -17 2445 -17 1328 0 2427 3 2442 7 63 18 128 105 128 173 0 46 -34 109
-76 141 l-37 29 -2436 2 c-2227 2 -2439 1 -2469 -14z"/>
<path d="M102 2719 c-123 -61 -133 -231 -19 -307 l41 -27 2436 0 2436 0 41 27
c115 76 104 247 -19 307 l-44 21 -2415 0 -2414 0 -43 -21z"/>
<path d="M150 1011 c-72 -15 -123 -62 -141 -133 -22 -80 19 -166 95 -202 31
-15 244 -16 2456 -16 2676 0 2458 -5 2515 62 75 89 47 217 -60 276 -28 16
-214 17 -2430 18 -1320 1 -2416 -1 -2435 -5z"/>
</g>
</svg>
