<?xml version="1.0" standalone="no"?>
<!DOCTYPE svg PUBLIC "-//W3C//DTD SVG 20010904//EN"
 "http://www.w3.org/TR/2001/REC-SVG-20010904/DTD/svg10.dtd">
<svg version="1.0" xmlns="http://www.w3.org/2000/svg"
 width="512.000000pt" height="512.000000pt" viewBox="0 0 512.000000 512.000000"
 preserveAspectRatio="xMidYMid meet">

<g transform="translate(0.000000,512.000000) scale(0.100000,-0.100000)"
fill="#000000" stroke="none">
<path d="M779 5091 c-24 -15 -166 -152 -315 -302 -285 -289 -335 -351 -394
-497 -51 -127 -65 -204 -64 -357 1 -214 30 -301 205 -630 641 -1202 1599
-2211 2756 -2903 181 -109 505 -282 602 -323 317 -133 668 -90 936 116 39 29
190 174 337 322 283 285 291 296 274 370 -5 19 -205 226 -619 641 l-612 612
-50 0 c-30 0 -61 -7 -75 -16 -14 -9 -131 -122 -260 -250 l-235 -234 -85 51
c-596 358 -1106 863 -1464 1449 l-76 124 32 36 c18 19 129 133 248 253 l215
217 0 60 0 60 -600 601 c-344 344 -614 607 -632 615 -47 21 -74 17 -124 -15z"/>
</g>
</svg>
