<?xml version="1.0" standalone="no"?>
<!DOCTYPE svg PUBLIC "-//W3C//DTD SVG 20010904//EN"
 "http://www.w3.org/TR/2001/REC-SVG-20010904/DTD/svg10.dtd">
<svg version="1.0" xmlns="http://www.w3.org/2000/svg"
 width="512.000000pt" height="512.000000pt" viewBox="0 0 512.000000 512.000000"
 preserveAspectRatio="xMidYMid meet">

<g transform="translate(0.000000,512.000000) scale(0.100000,-0.100000)"
fill="#000000" stroke="none">
<path d="M1780 5104 c-917 -110 -1657 -855 -1764 -1775 -109 -932 438 -1816
1323 -2139 620 -227 1322 -131 1859 255 50 36 95 65 99 65 4 0 345 -337 758
-749 813 -813 781 -785 851 -748 34 18 187 172 204 206 7 14 9 38 5 60 -6 31
-102 131 -756 786 -412 413 -749 754 -749 758 0 4 29 49 65 99 386 537 482
1239 255 1859 -102 279 -261 530 -469 738 -448 448 -1057 660 -1681 585z m480
-429 c456 -74 845 -320 1092 -692 184 -277 269 -554 270 -883 0 -159 -11 -255
-47 -400 -141 -563 -592 -1014 -1155 -1155 -145 -36 -241 -47 -400 -47 -329 1
-606 86 -883 270 -441 293 -707 790 -707 1325 0 268 55 494 180 736 202 391
562 682 995 807 183 52 466 69 655 39z"/>
</g>
</svg>
