<?xml version="1.0" standalone="no"?>
<!DOCTYPE svg PUBLIC "-//W3C//DTD SVG 20010904//EN"
 "http://www.w3.org/TR/2001/REC-SVG-20010904/DTD/svg10.dtd">
<svg version="1.0" xmlns="http://www.w3.org/2000/svg"
 width="512.000000pt" height="512.000000pt" viewBox="0 0 512.000000 512.000000"
 preserveAspectRatio="xMidYMid meet">

<g transform="translate(0.000000,512.000000) scale(0.100000,-0.100000)"
fill="#000000" stroke="none">
<path d="M1788 5051 c-18 -14 -27 -37 -37 -88 -19 -97 -25 -107 -64 -121 -34
-12 -38 -11 -112 38 -43 27 -85 50 -93 50 -8 0 -71 -56 -140 -123 -91 -91
-124 -130 -125 -148 0 -14 22 -57 48 -97 47 -73 47 -73 32 -110 -14 -36 -18
-38 -100 -57 -46 -11 -92 -26 -101 -34 -14 -11 -16 -39 -16 -192 0 -207 -5
-197 110 -219 84 -16 96 -23 110 -64 10 -33 9 -38 -36 -105 -26 -40 -46 -82
-46 -97 -1 -38 226 -264 264 -264 13 0 57 21 97 46 71 46 73 46 111 34 37 -12
38 -13 55 -94 28 -134 15 -127 228 -124 l181 3 13 25 c7 14 20 59 29 101 15
75 16 76 55 89 38 13 40 12 109 -33 40 -27 81 -47 97 -47 40 0 263 224 263
264 0 16 -19 58 -46 99 -45 68 -46 72 -34 108 12 37 14 38 89 53 42 9 87 22
101 29 l25 13 3 178 c3 210 4 208 -96 226 -97 18 -109 25 -122 65 -11 34 -10
39 34 107 25 39 46 83 46 98 0 20 -28 54 -123 148 -68 67 -131 122 -139 122
-9 0 -50 -23 -93 -50 -74 -49 -78 -50 -112 -38 -42 15 -47 24 -63 112 -21 113
-26 116 -218 116 -142 0 -162 -2 -184 -19z m292 -158 c22 -114 28 -123 105
-156 106 -44 111 -44 190 7 l70 45 68 -67 c37 -36 67 -71 67 -77 0 -5 -18 -37
-40 -70 -22 -33 -40 -69 -40 -80 0 -21 56 -164 71 -179 4 -5 43 -17 86 -26
l78 -16 3 -101 3 -101 -81 -18 c-44 -9 -84 -22 -90 -29 -16 -19 -70 -156 -70
-176 0 -10 20 -50 44 -88 l44 -68 -67 -67 c-36 -36 -71 -66 -76 -66 -5 0 -37
18 -72 41 -50 33 -69 40 -95 36 -41 -6 -146 -50 -163 -68 -7 -8 -20 -49 -30
-91 l-16 -78 -99 0 -100 0 -6 28 c-20 89 -34 136 -43 145 -14 14 -152 67 -176
67 -11 0 -47 -18 -80 -40 -33 -22 -65 -40 -70 -40 -6 0 -41 30 -77 68 l-67 67
44 69 c25 38 45 76 45 85 0 18 -57 159 -71 177 -5 6 -45 19 -89 28 l-81 18 3
101 3 101 78 16 c43 9 82 21 86 26 13 13 62 135 68 167 4 21 -5 43 -40 96
l-45 68 71 71 72 71 70 -45 c50 -32 77 -44 95 -41 40 8 154 58 166 73 6 8 17
42 23 77 20 106 10 97 121 97 l99 0 11 -57z"/>
<path d="M1848 4551 c-72 -23 -113 -49 -164 -103 -85 -89 -120 -187 -111 -305
17 -231 231 -402 454 -365 223 37 374 243 334 458 -45 244 -281 389 -513 315z
m214 -117 c135 -45 214 -199 174 -337 -43 -149 -195 -235 -339 -193 -224 65
-278 350 -93 491 72 55 170 70 258 39z"/>
<path d="M3692 4213 c-15 -13 -28 -52 -46 -137 -14 -66 -27 -120 -28 -121 -11
-9 -103 -45 -115 -45 -8 0 -60 29 -115 65 -56 36 -110 65 -122 65 -12 0 -79
-59 -178 -157 -127 -127 -158 -162 -158 -185 0 -17 25 -66 66 -128 l65 -102
-24 -61 -25 -61 -120 -26 c-66 -15 -128 -32 -136 -39 -14 -12 -16 -46 -16
-240 0 -124 4 -231 8 -237 11 -17 43 -31 87 -38 22 -4 71 -14 108 -23 l68 -15
25 -55 c13 -31 24 -59 24 -63 0 -4 -29 -52 -65 -106 -36 -55 -65 -110 -65
-124 0 -19 37 -62 158 -182 86 -85 164 -158 172 -161 19 -5 49 10 155 79 l84
55 53 -22 c29 -12 57 -25 61 -29 7 -6 55 -204 57 -232 0 -4 7 -14 16 -22 13
-14 49 -16 243 -16 205 0 229 2 243 18 9 9 26 67 38 127 13 61 28 115 34 122
6 6 35 21 64 32 l53 21 102 -66 c56 -37 112 -66 126 -66 32 -1 341 307 341
339 0 12 -29 67 -65 122 -36 55 -65 104 -65 108 0 4 10 33 22 64 l22 56 119
26 c66 15 128 34 139 43 16 16 18 36 18 241 0 202 -2 225 -18 241 -12 12 -61
27 -136 42 l-118 24 -24 54 c-13 30 -24 59 -24 65 0 6 29 56 65 112 36 56 65
113 65 126 0 32 -307 339 -338 339 -12 0 -69 -31 -128 -69 l-107 -69 -60 28
-61 27 -26 123 c-19 86 -33 127 -46 137 -13 10 -69 13 -235 13 -192 0 -219 -2
-237 -17z m392 -120 c2 -10 12 -54 21 -98 23 -113 32 -131 68 -146 18 -6 67
-27 110 -46 89 -39 76 -42 215 47 l83 53 105 -104 c57 -57 104 -107 104 -111
0 -4 -27 -49 -60 -101 -33 -51 -60 -102 -60 -112 0 -19 76 -215 88 -227 4 -4
50 -16 102 -28 52 -11 105 -22 118 -25 22 -5 22 -8 22 -158 l0 -154 -107 -22
c-60 -12 -117 -28 -129 -36 -11 -7 -26 -33 -33 -56 -7 -24 -24 -65 -37 -91
-13 -26 -24 -59 -24 -73 0 -13 28 -68 62 -121 l61 -96 -108 -108 -107 -108
-100 65 c-69 45 -107 63 -122 60 -34 -8 -200 -78 -213 -91 -7 -6 -23 -61 -36
-121 l-24 -110 -154 -3 -155 -2 -18 92 c-30 148 -28 145 -136 190 -140 58
-128 59 -233 -11 -51 -33 -97 -61 -102 -61 -11 0 -215 201 -215 212 0 4 27 49
61 100 45 69 59 99 56 118 -8 42 -78 204 -93 216 -8 7 -64 22 -124 35 l-110
22 0 153 c0 137 2 153 18 158 9 3 57 13 105 22 103 20 129 37 146 96 7 24 24
64 37 90 13 26 24 56 24 68 0 11 -27 62 -60 113 -33 52 -60 98 -60 103 0 5 47
56 104 113 l104 104 104 -67 c56 -37 110 -65 118 -62 48 15 198 81 211 93 10
8 26 58 39 121 12 59 24 110 27 115 2 4 71 7 153 7 133 0 149 -2 154 -17z"/>
<path d="M3840 3550 c-251 -47 -430 -262 -430 -515 1 -233 161 -441 385 -500
76 -19 194 -19 270 0 232 61 399 295 381 535 -19 265 -225 469 -489 485 -39 2
-92 0 -117 -5z m221 -135 c66 -23 145 -81 185 -137 58 -79 78 -139 78 -243 1
-81 -2 -97 -31 -157 -42 -90 -110 -160 -192 -201 -61 -30 -72 -32 -171 -32
-97 0 -110 2 -170 31 -182 86 -274 296 -210 483 46 138 140 226 282 266 62 17
163 13 229 -10z"/>
<path d="M1197 3018 c-11 -9 -28 -66 -51 -171 -18 -87 -35 -159 -37 -160 -2
-2 -41 -17 -85 -35 l-82 -33 -130 86 c-72 47 -141 85 -154 85 -31 0 -418 -385
-418 -416 0 -12 39 -81 86 -153 l86 -132 -33 -82 c-18 -45 -34 -84 -35 -85 -1
-2 -74 -19 -161 -38 -107 -23 -162 -39 -170 -51 -10 -12 -13 -88 -13 -294 0
-243 2 -278 16 -290 9 -8 86 -30 172 -49 l155 -35 29 -70 c16 -38 32 -77 34
-85 3 -8 -33 -73 -80 -145 -48 -72 -86 -141 -86 -154 0 -19 47 -72 192 -218
106 -106 200 -196 210 -199 21 -6 63 16 198 104 l104 69 85 -37 85 -36 32
-154 c26 -123 37 -158 54 -172 20 -16 49 -18 280 -18 142 0 270 4 283 9 30 12
36 29 72 202 l29 136 85 35 86 34 137 -89 c130 -84 139 -89 166 -78 42 18 402
383 402 407 0 12 -38 80 -85 152 -47 73 -85 135 -85 139 0 4 14 44 32 89 l32
81 85 17 c183 38 224 49 242 67 18 18 19 39 19 288 0 245 -2 271 -18 291 -15
18 -49 29 -171 55 -84 18 -154 35 -155 37 -2 1 -19 39 -38 84 l-34 80 88 135
c48 73 88 143 88 153 0 12 -75 95 -197 218 -149 149 -203 198 -222 198 -13 0
-78 -35 -145 -78 -67 -43 -126 -81 -132 -85 -6 -4 -49 9 -95 28 l-84 34 -33
153 c-18 84 -40 160 -49 170 -15 16 -40 18 -293 18 -205 0 -280 -3 -293 -12z
m527 -245 c15 -75 33 -147 38 -159 7 -16 33 -30 87 -49 42 -15 97 -38 123 -51
26 -13 56 -24 66 -24 10 0 73 36 141 80 67 44 125 80 129 80 4 0 72 -65 151
-144 l143 -143 -59 -89 c-33 -49 -72 -110 -87 -136 l-28 -48 40 -87 c21 -49
47 -109 56 -135 9 -25 25 -49 34 -53 15 -6 286 -65 298 -65 2 0 3 -93 2 -207
l-3 -206 -147 -32 c-80 -17 -153 -37 -161 -43 -8 -7 -18 -24 -21 -38 -4 -13
-25 -68 -48 -122 -23 -53 -41 -105 -41 -114 1 -9 39 -74 84 -143 l82 -127
-145 -145 -145 -145 -133 86 c-73 47 -137 86 -142 86 -5 0 -30 -11 -56 -24
-26 -13 -82 -36 -124 -51 -43 -15 -83 -34 -89 -42 -7 -7 -26 -80 -43 -161
l-31 -147 -199 -3 c-110 -1 -203 1 -208 6 -4 4 -22 73 -38 152 -17 80 -36 150
-43 156 -7 7 -41 22 -77 34 -36 13 -91 36 -123 52 -32 16 -66 26 -76 23 -10
-3 -73 -42 -141 -86 l-123 -80 -144 143 c-78 78 -143 146 -143 150 0 4 36 62
80 129 44 68 80 133 80 146 0 13 -12 47 -26 76 -15 29 -37 81 -50 116 -13 36
-28 69 -33 74 -5 5 -76 24 -158 42 l-148 32 -3 206 c-1 114 0 207 3 207 33 0
293 64 305 75 9 9 23 34 29 58 7 23 28 75 47 116 19 41 34 83 34 94 0 10 -37
75 -82 144 l-81 125 146 145 145 146 128 -81 c70 -45 135 -82 144 -82 10 0 50
15 91 34 41 19 93 40 116 47 24 6 49 19 58 29 8 9 29 82 46 163 l32 147 206 0
206 0 29 -137z"/>
<path d="M1330 2164 c-178 -48 -334 -173 -417 -337 -59 -118 -79 -301 -48
-436 41 -171 176 -341 335 -418 141 -69 272 -87 418 -57 346 70 570 412 497
759 -48 232 -240 430 -471 489 -77 20 -240 20 -314 0z m312 -124 c76 -23 167
-81 224 -141 260 -275 148 -725 -210 -849 -189 -65 -392 -16 -537 129 -101
101 -149 217 -149 361 0 231 137 421 360 497 87 30 221 31 312 3z"/>
</g>
</svg>
