<?xml version="1.0" standalone="no"?>
<!DOCTYPE svg PUBLIC "-//W3C//DTD SVG 20010904//EN"
 "http://www.w3.org/TR/2001/REC-SVG-20010904/DTD/svg10.dtd">
<svg version="1.0" xmlns="http://www.w3.org/2000/svg"
 width="512.000000pt" height="512.000000pt" viewBox="0 0 512.000000 512.000000"
 preserveAspectRatio="xMidYMid meet">

<g transform="translate(0.000000,512.000000) scale(0.100000,-0.100000)"
fill="#000000" stroke="none">
<path d="M1370 4035 c-263 -42 -531 -162 -807 -362 -117 -84 -133 -103 -133
-154 0 -45 29 -84 74 -99 43 -14 66 -5 161 66 164 121 377 236 535 288 183 60
389 80 548 52 178 -31 314 -92 669 -302 445 -262 609 -319 913 -318 244 1 410
41 656 158 190 91 448 264 480 322 53 96 -66 195 -156 131 -311 -225 -535
-335 -770 -381 -334 -65 -546 -7 -1033 283 -446 265 -635 332 -926 330 -69 -1
-164 -7 -211 -14z"/>
<path d="M1426 1910 c-224 -28 -471 -120 -701 -260 -102 -62 -273 -188 -285
-210 -26 -48 -2 -127 45 -148 52 -24 79 -15 178 58 285 211 551 323 830 351
266 26 463 -37 883 -286 358 -212 516 -284 716 -326 141 -29 381 -23 538 14
250 59 505 185 756 373 96 72 114 116 75 180 -24 39 -76 59 -115 44 -15 -5
-71 -41 -124 -79 -308 -219 -562 -320 -843 -337 -263 -16 -452 51 -904 320
-391 233 -581 303 -845 311 -74 2 -166 0 -204 -5z"/>
</g>
</svg>
