<?xml version="1.0" standalone="no"?>
<!DOCTYPE svg PUBLIC "-//W3C//DTD SVG 20010904//EN"
 "http://www.w3.org/TR/2001/REC-SVG-20010904/DTD/svg10.dtd">
<svg version="1.0" xmlns="http://www.w3.org/2000/svg"
viewBox="0 0 512.000000 512.000000"
 preserveAspectRatio="xMidYMid meet">

<g transform="translate(0.000000,512.000000) scale(0.100000,-0.100000)"
fill="#000000" stroke="none">
<path d="M2133 4535 c-168 -37 -306 -176 -342 -343 -6 -29 -11 -89 -11 -132
l0 -80 -319 0 c-175 0 -333 -3 -351 -6 -18 -4 -49 -23 -70 -43 -47 -45 -59
-98 -34 -159 24 -61 63 -85 148 -91 l71 -6 5 -1400 5 -1400 31 -65 c56 -118
170 -205 299 -229 82 -15 1908 -15 1991 0 178 33 311 175 335 357 4 37 8 669
9 1405 l0 1337 58 0 c78 0 121 24 150 83 19 37 22 55 17 88 -9 51 -67 113
-115 122 -18 4 -176 7 -351 7 l-319 0 0 83 c0 147 -44 262 -134 353 -63 62
-135 101 -225 120 -92 19 -757 19 -848 -1z m834 -311 c56 -42 73 -79 73 -165
l0 -79 -480 0 -480 0 0 75 c0 103 35 163 106 185 16 5 192 8 391 7 350 -2 362
-3 390 -23z m623 -1912 c0 -1519 6 -1398 -66 -1428 -50 -21 -1878 -21 -1928 0
-72 30 -66 -91 -66 1428 l0 1368 1030 0 1030 0 0 -1368z"/>
</g>
</svg>
