<?xml version="1.0" encoding="UTF-8"?>
<!DOCTYPE svg PUBLIC "-//W3C//DTD SVG 1.1//EN" "http://www.w3.org/Graphics/SVG/1.1/DTD/svg11.dtd">
<!-- Creator: CorelDRAW 2021.5 -->
<svg xmlns="http://www.w3.org/2000/svg" xml:space="preserve" width="1063px" height="236px" version="1.1" style="shape-rendering:geometricPrecision; text-rendering:geometricPrecision; image-rendering:optimizeQuality; fill-rule:evenodd; clip-rule:evenodd"
viewBox="0 0 1063 236.22"
 xmlns:xlink="http://www.w3.org/1999/xlink"
 xmlns:xodm="http://www.corel.com/coreldraw/odm/2003">
 <defs>
  <style type="text/css">
   <![CDATA[
    .str0 {stroke:#EE730E;stroke-width:0.9;stroke-miterlimit:22.9256}
    .fil2 {fill:#EE730E}
    .fil3 {fill:#FEFEFE}
    .fil0 {fill:#665B54;fill-rule:nonzero}
    .fil1 {fill:#EE730E;fill-rule:nonzero}
   ]]>
  </style>
 </defs>
 <g id="Слой_x0020_1">
  <metadata id="CorelCorpID_0Corel-Layer"/>
  <path class="fil0" d="M45.9 190.57l5.42 0 0 -83.19 25.46 0c1.89,0 2.78,0.76 2.78,2.78l0 6.17 5.29 0 0 -7.18c0,-5.17 -1.64,-6.81 -6.81,-6.81l-58.86 0c-5.17,0 -6.81,1.64 -6.81,6.81l0 7.18 5.3 0 0 -6.17c0,-2.02 0.88,-2.78 2.77,-2.78l25.46 0 0 83.19z"/>
  <path id="_1" class="fil0" d="M89.26 145.83c0,25.96 20.04,46.26 44.62,46.26 24.58,0 44.62,-20.3 44.62,-46.26 0,-25.34 -20.04,-45 -44.62,-45 -24.58,0 -44.62,19.66 -44.62,45zm5.67 0c0,-22.44 17.4,-39.71 38.95,-39.71 21.56,0 38.95,17.27 38.95,39.71 0,23.06 -17.39,40.96 -38.95,40.96 -21.55,0 -38.95,-17.9 -38.95,-40.96z"/>
  <path id="_2" class="fil0" d="M196.9 190.57l5.42 0 0 -83.19 51.94 0c1.76,0 2.77,0.89 2.77,2.78l0 73.1c0,5.17 2.14,7.31 7.31,7.31l6.3 0 0 -5.04 -5.42 0c-1.76,0 -2.77,-0.88 -2.77,-2.77l0 -73.11c0,-5.17 -2.14,-7.31 -7.31,-7.31l-66.3 0 0 5.04 8.06 0 0 83.19z"/>
  <path id="_3" class="fil0" d="M289.17 190.57l5.04 0 50.17 -69.2c2.9,-4.03 7.31,-11.09 7.31,-11.09l0.25 0c0,0 -0.63,6.68 -0.63,11.09l0 61.89c0,5.17 2.14,7.31 7.31,7.31l6.3 0 0 -5.04 -5.42 0c-1.76,0 -2.77,-0.88 -2.77,-2.77l0 -80.42 -5.04 0 -49.79 68.82c-2.9,4.04 -7.69,11.47 -7.69,11.47l-0.25 0c0,0 0.63,-6.68 0.63,-11.09l0 -61.89c0,-5.17 -2.14,-7.31 -7.31,-7.31l-6.3 0 0 5.04 5.42 0c1.76,0 2.77,0.89 2.77,2.78l0 80.41z"/>
  <path id="_4" class="fil0" d="M372.99 190.57l5.92 0c5.17,0 6.94,-2.14 7.32,-7.31l4.79 -59.99c0.37,-4.29 0.37,-11.98 0.37,-11.98l0.26 0c0,0 2.77,7.82 4.66,11.98l23.57 50.29 5.55 0 23.69 -50.29c2.02,-4.29 4.54,-11.73 4.54,-11.73l0.25 0c0,0 0,7.44 0.38,11.73l4.79 59.99c0.38,5.17 2.14,7.31 7.31,7.31l5.92 0 0 -5.04 -5.04 0c-1.76,0 -2.64,-0.88 -2.77,-2.77l-6.43 -80.42 -5.29 0 -25.72 55.46c-2.01,4.29 -4.28,9.96 -4.28,9.96l-0.25 0c0,0 -2.27,-5.67 -4.29,-9.96l-25.71 -55.46 -5.3 0 -6.42 80.42c-0.13,1.89 -1.01,2.77 -2.78,2.77l-5.04 0 0 5.04z"/>
  <path class="fil1" d="M720.54 94.17l75.51 0 0 93.99 -12.1 0 0 -86.01 -34.43 0c-2.92,0 -4.83,0.8 -5.72,2.39 -0.88,1.6 -1.32,3.86 -1.32,6.78l0 76.84 -11.7 0 0 -76.04c0,-3.99 -0.82,-6.93 -2.46,-8.84 -1.64,-1.91 -4.15,-2.86 -7.51,-2.86 -0.98,0 -1.73,-0.31 -2.26,-0.93 -0.53,-0.62 -0.8,-1.33 -0.8,-2.13 -0.09,-0.7 0.16,-1.41 0.73,-2.12 0.58,-0.71 1.26,-1.07 2.06,-1.07z"/>
  <path id="_1_0" class="fil1" d="M810.94 94.17l64.2 0 0.67 17.29c0,0.88 -0.31,1.55 -0.93,1.99 -0.62,0.44 -1.29,0.66 -2,0.66 -0.71,0.09 -1.37,-0.08 -1.99,-0.53 -0.62,-0.44 -0.93,-1.11 -0.93,-1.99 0,0 -0.22,-0.87 -0.67,-2.59 -0.44,-1.73 -1.06,-3.17 -1.86,-4.32 -0.62,-0.8 -1.61,-1.47 -2.99,-2 -1.37,-0.53 -3.52,-0.79 -6.44,-0.79l-18.75 0c-3.19,0 -5.25,0.79 -6.18,2.39 -0.93,1.59 -1.4,3.59 -1.4,5.98l0 25.12 20.48 0c1.24,0 2.39,-0.06 3.45,-0.2 1.07,-0.13 2.04,-0.33 2.93,-0.59 2.04,-0.54 3.56,-1.38 4.58,-2.53 1.02,-1.15 1.53,-3.19 1.53,-6.11 0,-0.62 0.29,-1.11 0.87,-1.47 0.57,-0.35 1.21,-0.53 1.92,-0.53 0.62,0 1.24,0.16 1.86,0.47 0.63,0.31 0.93,0.77 0.93,1.39l0 27.25c0,0.71 -0.3,1.22 -0.93,1.53 -0.62,0.31 -1.28,0.47 -1.99,0.47 -0.8,0 -1.48,-0.16 -2.06,-0.47 -0.58,-0.31 -0.86,-0.82 -0.86,-1.53 0,0 -0.11,-0.84 -0.34,-2.52 -0.22,-1.69 -0.95,-3.24 -2.19,-4.65 -0.8,-0.8 -1.88,-1.44 -3.26,-1.93 -1.37,-0.49 -3.52,-0.73 -6.44,-0.73l-20.48 0 0 30.04c0,3.01 0.58,4.99 1.73,5.92 1.15,0.93 4.17,1.39 9.04,1.39l18.48 0c2.13,0 3.77,-0.2 4.92,-0.6 1.15,-0.4 2.26,-1.13 3.32,-2.19 0.53,-0.53 0.95,-1.13 1.26,-1.79 0.32,-0.67 0.6,-1.4 0.87,-2.2 0.18,-0.71 0.33,-1.44 0.46,-2.19 0.14,-0.76 0.29,-1.49 0.47,-2.19 0.09,-0.89 0.49,-1.53 1.2,-1.93 0.7,-0.4 1.41,-0.56 2.12,-0.47 0.71,0 1.35,0.25 1.93,0.73 0.58,0.49 0.86,1.13 0.86,1.93l-0.93 18.48 -57.56 0 0 -76.57c0,-3.55 -0.62,-6.25 -1.86,-8.11 -1.24,-1.86 -3.5,-2.92 -6.78,-3.19 -1.15,0 -2.01,-0.33 -2.59,-1 -0.58,-0.66 -0.86,-1.39 -0.86,-2.19 -0.09,-0.8 0.22,-1.49 0.93,-2.06 0.71,-0.58 1.46,-0.87 2.26,-0.87z"/>
  <path id="_2_1" class="fil1" d="M897.08 134.72l0 -23.13c0,-2.22 -0.2,-4.14 -0.6,-5.78 -0.4,-1.64 -1.35,-3 -2.86,-4.06 -0.71,-0.44 -1.64,-0.8 -2.79,-1.06 -1.15,-0.27 -2.13,-0.4 -2.92,-0.4 -1.16,0 -2.06,-0.33 -2.73,-1 -0.66,-0.66 -1,-1.44 -1,-2.32 0,-0.8 0.34,-1.47 1,-2 0.67,-0.53 1.44,-0.8 2.33,-0.8l14.88 0c2.22,0 3.82,0.67 4.79,2 0.98,1.33 1.46,2.75 1.46,4.25l0 33.9c0,4.34 1.44,8.07 4.32,11.17 2.88,3.1 6.89,4.65 12.03,4.65 3.55,0 6.87,-0.8 9.97,-2.39 3.11,-1.6 5.76,-3.73 7.98,-6.38 2.22,-2.57 3.97,-5.48 5.25,-8.71 1.29,-3.24 1.93,-6.49 1.93,-9.77l0 -28.72 11.56 0 0 93.99 -11.56 0 0 -44.14c-0.71,1.95 -1.95,3.86 -3.72,5.72 -1.78,1.86 -3.95,3.55 -6.52,5.05 -2.48,1.51 -5.29,2.73 -8.44,3.66 -3.14,0.93 -6.45,1.39 -9.9,1.39 -3.46,0 -6.67,-0.62 -9.64,-1.86 -2.97,-1.24 -5.56,-2.97 -7.78,-5.18 -2.21,-2.22 -3.94,-4.88 -5.18,-7.98 -1.24,-3.1 -1.86,-6.47 -1.86,-10.1z"/>
  <path id="_3_2" class="fil1" d="M1019.11 188.16l-32.7 0 0 -76.57c0,-2.31 -0.2,-4.26 -0.6,-5.85 -0.4,-1.6 -1.35,-2.93 -2.86,-3.99 -0.71,-0.44 -1.64,-0.8 -2.79,-1.06 -1.15,-0.27 -2.13,-0.4 -2.92,-0.4 -1.16,0 -2.06,-0.33 -2.73,-1 -0.66,-0.66 -1,-1.44 -1,-2.32 0,-0.8 0.34,-1.47 1,-2 0.67,-0.53 1.44,-0.8 2.33,-0.8l15.02 0c2.22,0 3.83,0.69 4.85,2.06 1.02,1.38 1.53,2.82 1.53,4.33l0 34.16 13.56 0c3.37,0 7.31,0.22 11.83,0.66 4.52,0.45 8.77,1.6 12.76,3.46 4.08,1.77 7.54,4.5 10.37,8.18 2.84,3.67 4.26,8.75 4.26,15.22 0,4.52 -0.94,8.42 -2.8,11.7 -1.86,3.27 -4.25,5.98 -7.17,8.1 -3.02,2.13 -6.43,3.68 -10.24,4.66 -3.81,0.97 -7.71,1.46 -11.7,1.46zm-7.71 -45.47l-9.44 0c-1.42,0.18 -2.39,0.56 -2.92,1.14 -0.53,0.57 -0.8,1.39 -0.8,2.45l0 29.25c0,1.42 0.22,2.53 0.66,3.32 0.45,0.8 1.56,1.2 3.33,1.2l10.9 0c2.75,0 5.58,-0.27 8.51,-0.8 2.92,-0.53 5.58,-1.46 7.97,-2.79 2.4,-1.33 4.37,-3.15 5.92,-5.45 1.55,-2.3 2.32,-5.23 2.32,-8.77 0,-4.79 -0.93,-8.49 -2.79,-11.1 -1.86,-2.62 -4.12,-4.55 -6.78,-5.79 -2.66,-1.24 -5.51,-1.99 -8.57,-2.26 -3.06,-0.26 -5.83,-0.4 -8.31,-0.4z"/>
  <g id="_2036963575024">
   <path class="fil2" d="M601.86 208.13c1.11,-0.37 8.78,-6.33 10.16,-7.43 3.44,-2.72 6.44,-5.43 9.4,-8.26 4.92,-4.72 11.45,-12.25 14.57,-20.74 3.94,-10.73 1.76,-19.54 -2.53,-28.62 -3.07,-6.48 -9.79,-15.62 -14.24,-21.07 -7.29,-8.95 -16.75,-20.61 -22.75,-30.23 -7.37,-11.83 -12.75,-23.94 -14.11,-38.91 -0.73,-8.01 0,-16.22 1.72,-24.03 0.46,-2.11 1.49,-5.04 1.75,-6.9 -2.25,0.74 -10.2,4.59 -12.37,5.77 -10.96,5.98 -23.53,13.68 -28.91,25.77 -7.43,16.67 3.35,34.87 12.39,48.58 0.15,0.23 0.3,0.46 0.46,0.69l17.32 24.82c9.9,14.18 20.01,30.63 24.88,48.04 3.37,12.05 3.48,20.29 2.26,32.52z"/>
   <path class="fil2" d="M593.22 220.48c0.11,-0.99 0.89,-3.05 1.2,-4.17 12.19,-43.75 -20.57,-79.51 -42.9,-113 -5.18,-7.78 -11.06,-17.35 -14.14,-27.67 -9.01,-30.22 19.44,-46.93 43.22,-57.5 2.35,-1.05 12.83,-5.55 14.7,-5.89 -0.87,2.4 -1.92,4.8 -2.82,7.34 -0.89,2.53 -1.64,5.06 -2.31,7.75 -1.42,5.69 -2.31,11.5 -2.38,17.7 -0.15,12.35 2.97,23.41 7.34,32.89 8.36,18.14 21.6,32.07 33.15,47.55 12.16,16.29 23.73,35.17 8.44,57.77 -2.85,4.23 -5.98,7.89 -9.16,11.15l-5.17 4.89c-1.85,1.49 -3.49,3.11 -5.45,4.62 -3.79,2.91 -7.34,5.78 -11.51,8.61 -1.44,0.98 -10.84,7.42 -12.21,7.96zm-3.5 -8.54l-0.66 2.66 -0.55 1.9 -0.99 3.07 -0.5 1.3 -0.94 2.35c-0.38,1.6 -1.84,4.24 -2.59,5.72 -0.86,1.69 -2.4,3.96 -2.98,5.45 2.57,-0.9 17.66,-10.63 18.83,-11.06 0.3,-0.51 3.08,-2.19 3.8,-2.46 0.25,-0.44 3.85,-2.81 4.5,-3.01 0.31,-0.52 2.61,-2.01 3.28,-2.31 0.21,-0.49 1.07,-0.89 1.59,-1.27 0.69,-0.49 1.09,-0.87 1.87,-1.27l1.3 -1.06c5.96,-4.52 12.03,-9.5 17.2,-14.89 4.12,-4.28 7.81,-8.54 10.95,-13.73 9.67,-16 7.89,-29.92 -0.73,-45.34 -7.44,-13.28 -24.04,-31.79 -33.29,-45.7 -4.97,-7.48 -10.07,-16.4 -13.11,-26.38 -5.17,-16.95 -3.71,-33.76 3.1,-50.03l4.76 -10.05c0.56,-1.05 1.25,-2.17 1.73,-3.28 -5.07,0.99 -27.13,10.12 -31.56,12.19 -10.44,4.85 -19.43,10.04 -27.33,16.33 -34.72,27.63 -10.68,60.09 8.1,87.43 14.75,21.47 33.19,46.17 35.57,73.62 0.31,3.49 0.33,7.02 0.08,10.52 -0.12,1.6 -0.89,8.41 -1.43,9.3z"/>
   <path class="fil3" d="M601.86 208.13c1.22,-12.23 1.11,-20.47 -2.26,-32.52 -4.87,-17.41 -14.98,-33.86 -24.88,-48.04l-17.32 -24.82c-0.16,-0.23 -0.31,-0.46 -0.46,-0.69 -9.04,-13.71 -19.82,-31.91 -12.39,-48.58 5.38,-12.09 17.95,-19.79 28.91,-25.77 2.17,-1.18 10.12,-5.03 12.37,-5.77 -0.26,1.86 -1.29,4.79 -1.75,6.9 -1.72,7.81 -2.45,16.02 -1.72,24.03 1.36,14.97 6.74,27.08 14.11,38.91 6,9.62 15.46,21.28 22.75,30.23 4.45,5.45 11.17,14.59 14.24,21.07 4.29,9.08 6.47,17.89 2.53,28.62 -3.12,8.49 -9.65,16.02 -14.57,20.74 -2.96,2.83 -5.96,5.54 -9.4,8.26 -1.38,1.1 -9.05,7.06 -10.16,7.43zm-8.64 12.35c1.37,-0.54 10.77,-6.98 12.21,-7.96 4.17,-2.83 7.72,-5.7 11.51,-8.61 1.96,-1.51 3.6,-3.13 5.45,-4.62l5.17 -4.89c3.18,-3.26 6.31,-6.92 9.16,-11.15 15.29,-22.6 3.72,-41.48 -8.44,-57.77 -11.55,-15.48 -24.79,-29.41 -33.15,-47.55 -4.37,-9.48 -7.49,-20.54 -7.34,-32.89 0.07,-6.2 0.96,-12.01 2.38,-17.7 0.67,-2.69 1.42,-5.22 2.31,-7.75 0.9,-2.54 1.95,-4.94 2.82,-7.34 -1.87,0.34 -12.35,4.84 -14.7,5.89 -23.78,10.57 -52.23,27.28 -43.22,57.5 3.08,10.32 8.96,19.89 14.14,27.67 22.33,33.49 55.09,69.25 42.9,113 -0.31,1.12 -1.09,3.18 -1.2,4.17z"/>
   <path class="fil2 str0" d="M516.32 62.76c0.39,4.86 -0.35,5.21 0.95,11.75 1.93,9.72 6.53,19.13 11.28,27.47 3.17,5.57 6.53,10.7 9.98,15.84 3.48,5.19 6.94,10.27 10.44,15.38 8.74,12.75 12.54,18.95 19.36,32.29 5.31,10.4 10.74,28.43 7.46,42.31 -0.41,-0.73 -1.23,-4.12 -1.6,-5.28 -3.66,-11.4 -9.8,-21.94 -16.13,-31.7 -7.32,-11.28 -15.1,-21.38 -22.65,-32.03 -12.3,-17.38 -32.81,-44.64 -24.15,-67.33 0.95,-2.49 3.51,-7.36 5.06,-8.7zm54.29 148.23c0.14,0.19 0.03,-0.07 0.22,0.4 0.03,0.08 0.13,0.37 0.14,0.45 0.12,0.57 0.09,0.54 0.03,1.01 0.14,0.22 0.01,-0.16 0.21,0.39 0.11,0.29 0.07,0.08 0.13,0.45 0.09,0.53 0.06,0.65 0.01,1.13 0.47,0.68 0.56,2.67 0.39,3.6 0.75,1.28 -0.01,7.03 -0.3,8.7 -0.56,3.24 -0.9,3.87 -1.86,6.54 -0.28,0.78 -0.11,0.78 0.02,0.97l3.66 -5.48c0.55,-0.86 3,-5.46 3.39,-5.75l1.11 -2.37c-0.01,-0.58 0.19,-1.07 0.58,-1.63l0.19 -0.24 0.54 -1.86c0.02,-0.05 0.1,-0.22 0.13,-0.27 0.3,-0.52 0.03,-0.11 0.27,-0.37l0.75 -2.28c-0.05,-0.79 0.3,-2.38 0.79,-2.96 -0.06,-1.13 0.78,-4.64 0.98,-6.22 0.85,-6.79 0.37,-13.51 -0.99,-20.09 -5.57,-26.95 -27.18,-53.32 -41.41,-75.95 -10.71,-17.03 -24.08,-39.17 -14.01,-59.65 0.86,-1.75 1.97,-3.16 2.7,-4.61 -1.4,0.71 -3.36,2.19 -4.7,3.18 -4.69,3.44 -8.82,7.31 -12.41,11.89 -18.26,23.3 -2.89,50.76 10.15,70.69 13.69,20.93 35.62,45.97 45.28,68.07 0.86,1.98 4.18,10.21 4.01,12.26z"/>
   <path class="fil2" d="M653.95 126.21c1.07,0.38 4.48,3.24 5.46,4.02 12.81,10.16 24.67,26.32 18.29,44.28 -4.82,13.58 -15.83,22.32 -26.55,29.81 -1.39,0.97 -10.4,6.67 -11.81,6.94 1.34,-0.69 9.49,-9.95 10.87,-11.68 5.67,-7.14 10.65,-15.32 13.26,-25.1 4.43,-16.58 0.2,-32.88 -8.71,-46.82 -0.42,-0.66 -0.48,-0.87 -0.81,-1.45zm-26.55 87.9c-0.35,0.65 -1.04,1.05 -1.62,1.48 -0.32,0.24 -0.56,0.44 -0.85,0.67 -0.52,0.42 -0.39,0.41 -0.93,0.52 -0.37,0.63 -2.68,2.35 -3.33,2.5l-0.21 0.25c-0.12,0.12 -0.17,0.18 -0.32,0.3 -0.62,0.52 -3.64,2.72 -4.29,2.84 -0.43,0.66 -1.22,1.02 -1.86,1.45 -0.66,0.44 -1.37,1.06 -2.11,1.22l-0.52 0.51c-0.26,0.21 -0.48,0.32 -0.69,0.46 -0.49,0.31 -0.84,0.51 -1.28,0.8 -0.95,0.63 -7.63,4.54 -8.08,5.22 4.2,-0.74 11.69,-3.97 15.88,-5.12l5.32 -1.98 3.33 -1.35 2.77 -1.2 3.39 -1.48 2.51 -1.19 2.61 -1.29 2.61 -1.25c0.45,-0.49 1.54,-0.98 2.26,-1.18l2.73 -1.5c0.11,-0.19 7.15,-4.39 7.99,-4.93 6.44,-4.15 9.18,-6.56 14.56,-11.25 6.28,-5.49 12.95,-14.36 15.88,-23.04 10.82,-32.06 -26.06,-56.84 -50.73,-68.48 -1.3,-0.62 -3.16,-1.7 -4.41,-2.04l10.8 10.84c1.62,1.96 3.31,3.79 4.97,5.86 17.52,21.88 22.5,46.28 5.06,70.57 -3.62,5.05 -8.36,10.45 -12.75,14.41 -1.43,1.29 -7.55,7.1 -8.69,7.38z"/>
   <path class="fil3" d="M515.19 87.53l1.28 2.8c0.4,1.01 0.81,1.95 1.25,2.91 11.63,25.36 30.27,45.09 43.83,71.05 0.73,1.4 2.25,4.21 2.63,5.67l-6.63 -9.64c-8.95,-12.94 -18.48,-24.86 -27.19,-38.52 -2.12,-3.33 -4.26,-6.73 -6.19,-10.33 -2.56,-4.81 -9.04,-17.46 -8.98,-23.94zm1.13 -24.77c-1.55,1.34 -4.11,6.21 -5.06,8.7 -8.66,22.69 11.85,49.95 24.15,67.33 7.55,10.65 15.33,20.75 22.65,32.03 6.33,9.76 12.47,20.3 16.13,31.7 0.37,1.16 1.19,4.55 1.6,5.28 3.28,-13.88 -2.15,-31.91 -7.46,-42.31 -6.82,-13.34 -10.62,-19.54 -19.36,-32.29 -3.5,-5.11 -6.96,-10.19 -10.44,-15.38 -3.45,-5.14 -6.81,-10.27 -9.98,-15.84 -4.75,-8.34 -9.35,-17.75 -11.28,-27.47 -1.3,-6.54 -0.56,-6.89 -0.95,-11.75z"/>
   <path class="fil2" d="M558.68 227.16c-1.04,-0.29 -6.24,-6.01 -7.18,-6.87l-6.54 -7.32c-8.39,-10.24 -15.96,-21.97 -20.3,-35.17 -1.14,-3.45 -2.1,-7.2 -2.72,-11.13 -0.43,-2.75 -1.23,-10.19 -0.64,-12.79l2.99 4c7.27,10.32 12.68,17.52 19.86,28.75 5.46,8.54 16.44,27.1 14.53,40.53zm-20.77 -14.23c0.46,0.56 0.27,0.11 0.39,0.73 0.6,0.4 0.77,0.53 0.93,1.18 0.62,0.32 0.43,0.26 0.83,0.76 0.01,0.01 0.31,0.39 0.33,0.42 0.17,0.29 0.14,0.16 0.2,0.46 0.29,0.19 0.13,0.07 0.37,0.28 0.02,0.02 0.28,0.26 0.31,0.29 0.41,0.44 0.34,0.33 0.45,0.78 0.25,0.18 0.13,0.09 0.36,0.28 0.03,0.02 0.35,0.32 0.41,0.38 0.38,0.39 0.43,0.44 0.54,0.89 0.33,0.19 0.34,0.15 0.71,0.52 0.07,0.08 0.19,0.22 0.24,0.31 0.33,0.52 0.11,0.08 0.21,0.46 0.56,0.34 0.38,0.29 0.86,0.77 0.04,0.04 0.37,0.36 0.38,0.37 0.36,0.42 0.2,0.14 0.29,0.54 0.52,0.29 0.46,0.28 0.88,0.76 0.36,0.4 0.43,0.44 0.59,0.85 0.6,0.33 1.43,1.06 1.8,1.67 0.22,0.35 0.06,-0.02 0.15,0.32 0.56,0.29 0.27,0.1 0.73,0.53l1.14 1.14c0.11,0.11 0.16,0.16 0.25,0.29 0.24,0.34 0.07,-0.01 0.16,0.31 0.57,0.27 0.6,0.35 1.05,0.8l6.1 5.78c0.38,0.09 0.02,-0.09 0.53,0.29 0.7,0.51 1.11,1.08 1.89,1.46 0.36,-0.46 0.56,-1.15 0.94,-1.45 0.73,-2.21 1.46,-3.53 1.97,-5.99 0.52,-2.53 0.57,-4.72 0.48,-7.34l-0.16 -2.23 -0.43 -2.64 -0.6 -2.96 -0.53 -2c-0.19,-0.27 -1.58,-4.58 -1.86,-5.32 -0.67,-1.75 -1.37,-3.43 -2.15,-5.06 -1.56,-3.31 -3.21,-6.57 -4.98,-9.64 -3.68,-6.37 -7.45,-12.1 -11.35,-17.89 -5.57,-8.27 -19.97,-27.65 -23.82,-34.63 -1.03,1.04 -2.12,8.04 -2.37,10.04 -2.74,21.86 6.77,42.89 19.12,59.95 0.86,1.2 1.76,2.3 2.66,3.54z"/>
   <path class="fil3" d="M669.93 150.51c1.19,1.07 2.97,6.39 3.31,7.85 0.77,3.23 0.92,6.57 0.37,9.91 -0.51,3.05 -1.55,5.84 -2.78,8.27 -0.86,1.7 -3.38,5.97 -4.43,6.75 0.6,-2.23 1.65,-4.54 2.31,-6.97 2.74,-10.05 2.27,-15.73 1.22,-25.81zm-15.98 -24.3c0.33,0.58 0.39,0.79 0.81,1.45 8.91,13.94 13.14,30.24 8.71,46.82 -2.61,9.78 -7.59,17.96 -13.26,25.1 -1.38,1.73 -9.53,10.99 -10.87,11.68 1.41,-0.27 10.42,-5.97 11.81,-6.94 10.72,-7.49 21.73,-16.23 26.55,-29.81 6.38,-17.96 -5.48,-34.12 -18.29,-44.28 -0.98,-0.78 -4.39,-3.64 -5.46,-4.02z"/>
   <path class="fil3" d="M550.54 210.83c-2.12,-1.4 -10.14,-13.31 -11.99,-16.33 -2.6,-4.25 -7.98,-14.64 -8.87,-19.44 0.83,0.81 2.25,3.11 3.02,4.22 4.29,6.13 16.56,25.36 17.84,31.55zm8.14 16.33c1.91,-13.43 -9.07,-31.99 -14.53,-40.53 -7.18,-11.23 -12.59,-18.43 -19.86,-28.75l-2.99 -4c-0.59,2.6 0.21,10.04 0.64,12.79 0.62,3.93 1.58,7.68 2.72,11.13 4.34,13.2 11.91,24.93 20.3,35.17l6.54 7.32c0.94,0.86 6.14,6.58 7.18,6.87z"/>
   <path class="fil2 str0" d="M517.72 93.24c-0.44,-0.96 -0.85,-1.9 -1.25,-2.91l-1.28 -2.8c-0.06,6.48 6.42,19.13 8.98,23.94 1.93,3.6 4.07,7 6.19,10.33 8.71,13.66 18.24,25.58 27.19,38.52l6.63 9.64c-0.38,-1.46 -1.9,-4.27 -2.63,-5.67 -13.56,-25.96 -32.2,-45.69 -43.83,-71.05z"/>
   <path class="fil2" d="M550.54 210.83c-1.28,-6.19 -13.55,-25.42 -17.84,-31.55 -0.77,-1.11 -2.19,-3.41 -3.02,-4.22 0.89,4.8 6.27,15.19 8.87,19.44 1.85,3.02 9.87,14.93 11.99,16.33z"/>
   <path class="fil2" d="M673.61 168.27c0.55,-3.34 0.4,-6.68 -0.37,-9.91 -0.34,-1.46 -2.12,-6.78 -3.31,-7.85 1.05,10.08 1.52,15.76 -1.22,25.81 -0.66,2.43 -1.71,4.74 -2.31,6.97 1.05,-0.78 3.57,-5.05 4.43,-6.75 1.23,-2.43 2.27,-5.22 2.78,-8.27z"/>
  </g>
 </g>
</svg>
