<?xml version="1.0" standalone="no"?>
<!DOCTYPE svg PUBLIC "-//W3C//DTD SVG 20010904//EN"
 "http://www.w3.org/TR/2001/REC-SVG-20010904/DTD/svg10.dtd">
<svg version="1.0" xmlns="http://www.w3.org/2000/svg"
 width="512.000000pt" height="512.000000pt" viewBox="0 0 512.000000 512.000000"
 preserveAspectRatio="xMidYMid meet">

<g transform="translate(0.000000,512.000000) scale(0.100000,-0.100000)"
fill="#000000" stroke="none">
<path d="M1484 4691 c-40 -25 -59 -76 -44 -117 6 -16 239 -258 538 -559 290
-291 736 -740 992 -998 l465 -467 -997 -998 c-629 -629 -999 -1006 -1003
-1022 -15 -62 36 -120 104 -120 l46 0 1037 1037 c571 571 1045 1053 1054 1071
12 26 13 40 5 65 -8 22 -323 344 -1054 1075 -1139 1139 -1072 1078 -1143 1033z"/>
</g>
</svg>
