<?xml version="1.0" standalone="no"?>
<!DOCTYPE svg PUBLIC "-//W3C//DTD SVG 20010904//EN"
 "http://www.w3.org/TR/2001/REC-SVG-20010904/DTD/svg10.dtd">
<svg version="1.0" xmlns="http://www.w3.org/2000/svg"
viewBox="0 0 512.000000 512.000000"
 preserveAspectRatio="xMidYMid meet">

<g transform="translate(0.000000,512.000000) scale(0.100000,-0.100000)"
fill="#000000" stroke="none">
<path d="M3790 3621 c-42 -14 -84 -38 -107 -63 -54 -57 -69 -167 -34 -236 11
-20 132 -149 270 -287 138 -137 251 -253 251 -257 0 -5 -853 -8 -1895 -8
-1688 0 -1900 -2 -1933 -15 -169 -71 -169 -319 0 -390 33 -13 245 -15 1933
-15 1042 0 1895 -3 1895 -8 0 -4 -113 -120 -251 -257 -138 -138 -259 -267
-270 -287 -35 -69 -20 -179 34 -236 60 -65 174 -85 252 -44 50 26 926 903 951
952 24 49 23 134 -4 185 -25 49 -903 926 -949 949 -40 20 -109 28 -143 17z"/>
</g>
</svg>
