<svg xmlns="http://www.w3.org/2000/svg" version="1.1" xmlns:xlink="http://www.w3.org/1999/xlink" xmlns:svgjs="http://svgjs.com/svgjs" width="180px" height="180px"><svg xmlns="http://www.w3.org/2000/svg" version="1.1" width="180px" height="180px" style="shape-rendering:geometricPrecision; text-rendering:geometricPrecision; image-rendering:optimizeQuality; fill-rule:evenodd; clip-rule:evenodd" xmlns:xlink="http://www.w3.org/1999/xlink">
<g><path style="opacity:0.858" fill="#ff750b" d="M 100.5,-0.5 C 102.5,-0.5 104.5,-0.5 106.5,-0.5C 93.8157,22.6919 94.6491,45.3586 109,67.5C 118.738,79.3162 127.738,91.6495 136,104.5C 142.533,117.233 141.867,129.566 134,141.5C 120.507,156.831 104.674,169.164 86.5,178.5C 85.7895,175.532 86.6229,172.865 89,170.5C 94.0778,158.409 94.7445,146.076 91,133.5C 87.8977,125.292 84.231,117.292 80,109.5C 70.1705,95.844 60.8372,81.844 52,67.5C 41.078,46.7783 45.2446,29.945 64.5,17C 76.2036,10.3135 88.2036,4.48021 100.5,-0.5 Z"></path></g>
<g><path style="opacity:0.999" fill="#fff4ed" d="M 94.5,7.5 C 95.552,7.35055 96.552,7.51722 97.5,8C 90.1168,23.2382 89.6168,38.7382 96,54.5C 98.8261,60.8223 102.159,66.8223 106,72.5C 114.05,82.2152 121.716,92.2152 129,102.5C 136.556,115.383 136.222,128.049 128,140.5C 118.546,151.098 107.712,159.598 95.5,166C 99.5801,153.156 99.4134,140.323 95,127.5C 92.1939,120.554 88.8606,113.888 85,107.5C 76.3333,94.8333 67.6667,82.1667 59,69.5C 47.3017,51.9058 49.4683,36.4058 65.5,23C 74.6561,16.757 84.3228,11.5903 94.5,7.5 Z"></path></g>
<g><path style="opacity:1" fill="#ff7506" d="M 86.5,15.5 C 87.5,15.5 88.5,15.5 89.5,15.5C 84.912,34.8891 88.0787,52.8891 99,69.5C 108.385,81.2171 117.385,93.2171 126,105.5C 132.669,117.481 131.669,128.814 123,139.5C 117.239,146.099 110.739,151.766 103.5,156.5C 103.553,145.145 101.72,134.145 98,123.5C 88.4988,105.152 77.4988,87.8187 65,71.5C 60.1771,64.191 57.3438,56.191 56.5,47.5C 57.6621,37.8343 62.3287,30.3343 70.5,25C 75.7423,21.5717 81.0756,18.4051 86.5,15.5 Z"></path></g>
<g><path style="opacity:0.873" fill="#ff7407" d="M 45.5,30.5 C 46.3764,30.3691 47.0431,30.7025 47.5,31.5C 41.8147,41.0564 40.9814,51.0564 45,61.5C 55.5814,80.3359 66.9147,98.6692 79,116.5C 90.3093,135.428 91.3093,154.762 82,174.5C 80.7432,176.746 78.9099,178.079 76.5,178.5C 79.2639,169.337 78.7639,160.337 75,151.5C 71.0179,143.537 66.5179,135.87 61.5,128.5C 52.8066,116.973 44.3066,105.307 36,93.5C 31.7105,86.3149 28.3771,78.6482 26,70.5C 23.8842,60.2236 25.8842,50.8903 32,42.5C 36.0995,37.8918 40.5995,33.8918 45.5,30.5 Z"></path></g>
<g><path style="opacity:1" fill="#fff3ea" d="M 35.5,46.5 C 37.5778,57.207 41.4112,67.5404 47,77.5C 58.1236,93.2992 68.4569,109.633 78,126.5C 82.561,135.73 84.061,145.397 82.5,155.5C 79.4712,147.109 75.6379,139.109 71,131.5C 58.8845,115.381 47.5511,98.7144 37,81.5C 32.6189,72.9808 30.9522,63.9808 32,54.5C 33.0833,51.7334 34.25,49.0668 35.5,46.5 Z"></path></g>
<g><path style="opacity:0.835" fill="#ff750a" d="M 122.5,77.5 C 140.481,84.2191 154.647,95.5524 165,111.5C 168.277,119.527 168.277,127.527 165,135.5C 160.457,144.544 153.957,151.878 145.5,157.5C 132.537,165.979 118.537,172.312 103.5,176.5C 101.431,176.176 101.098,175.342 102.5,174C 118.17,165.663 131.003,154.163 141,139.5C 146.954,127.176 146.954,114.843 141,102.5C 136.541,94.0276 130.541,86.6943 123,80.5C 122.517,79.552 122.351,78.552 122.5,77.5 Z"></path></g>
<g><path style="opacity:1" fill="#ff7f22" d="M 35.5,64.5 C 44.7123,81.9126 55.2123,98.5792 67,114.5C 69.6085,118.707 71.6085,123.04 73,127.5C 59.8388,110.522 48.1722,92.5221 38,73.5C 36.8551,70.5682 36.0218,67.5682 35.5,64.5 Z"></path></g>
<g><path style="opacity:0.999" fill="#fff5ef" d="M 143.5,95.5 C 156.828,103.488 162.661,115.155 161,130.5C 155.08,142.754 146.08,152.088 134,158.5C 133.333,157.833 133.333,157.167 134,156.5C 152.902,138.507 156.069,118.174 143.5,95.5 Z"></path></g>
<g><path style="opacity:0.85" fill="#ff7509" d="M 72.5,179.5 C 71.1667,179.5 69.8333,179.5 68.5,179.5C 55.1062,167.239 44.9395,152.572 38,135.5C 35.6375,126.982 34.9708,118.315 36,109.5C 36.5431,107.369 37.3764,105.369 38.5,103.5C 48.839,117.52 58.6723,131.853 68,146.5C 72.8528,155.242 74.8528,164.575 74,174.5C 73.3923,176.154 72.8923,177.821 72.5,179.5 Z"></path></g>
<g><path style="opacity:0.99" fill="#ff7d21" d="M 156.5,115.5 C 158.53,123.327 157.363,130.66 153,137.5C 153.365,134.206 153.865,130.873 154.5,127.5C 155.167,123.5 155.833,119.5 156.5,115.5 Z"></path></g>
<g><path style="opacity:0.999" fill="#fff4ec" d="M 40.5,116.5 C 52.5868,130.117 62.0868,145.451 69,162.5C 69.6667,165.5 69.6667,168.5 69,171.5C 52.0602,156.952 42.5602,138.619 40.5,116.5 Z"></path></g>
<g><path style="opacity:0.965" fill="#ffc99e" d="M 156.5,115.5 C 155.833,119.5 155.167,123.5 154.5,127.5C 154.334,122.821 154.501,118.155 155,113.5C 155.717,114.044 156.217,114.711 156.5,115.5 Z"></path></g>
<g><path style="opacity:0.996" fill="#ff8127" d="M 47.5,132.5 C 53.6682,140.511 58.5015,149.177 62,158.5C 55.6629,150.665 50.8296,141.999 47.5,132.5 Z"></path></g>
</svg><style>@media (prefers-color-scheme: light) { :root { filter: none; } }
</style></svg>