<?xml version="1.0" standalone="no"?>
<!DOCTYPE svg PUBLIC "-//W3C//DTD SVG 20010904//EN"
 "http://www.w3.org/TR/2001/REC-SVG-20010904/DTD/svg10.dtd">
<svg version="1.0" xmlns="http://www.w3.org/2000/svg"
 width="512.000000pt" height="512.000000pt" viewBox="0 0 512.000000 512.000000"
 preserveAspectRatio="xMidYMid meet">

<g transform="translate(0.000000,512.000000) scale(0.100000,-0.100000)"
fill="#000000" stroke="none">
<path d="M764 4145 c-207 -45 -385 -225 -430 -434 -20 -98 -20 -2204 0 -2302
45 -211 224 -390 435 -435 98 -21 3484 -21 3582 0 211 45 390 224 435 435 20
98 20 2204 0 2302 -45 211 -224 390 -435 435 -95 20 -3494 19 -3587 -1z m3584
-217 c65 -26 130 -75 167 -126 59 -80 67 -118 73 -314 l4 -178 -2031 0 -2031
0 0 144 c0 79 5 167 10 197 28 145 140 260 281 288 24 5 818 8 1764 7 1597 -1
1723 -2 1763 -18z m240 -1655 c-3 -744 -5 -822 -20 -861 -41 -103 -124 -184
-223 -219 -47 -17 -149 -18 -1785 -18 -1636 0 -1738 1 -1785 18 -99 35 -182
116 -223 219 -15 39 -17 117 -20 861 l-3 817 2031 0 2031 0 -3 -817z"/>
<path d="M1013 1798 c-57 -28 -67 -122 -17 -169 l26 -24 459 -3 c513 -3 507
-4 535 65 19 43 5 93 -33 123 -25 19 -39 20 -487 19 -298 0 -469 -4 -483 -11z"/>
</g>
</svg>
