<?xml version="1.0" standalone="no"?>
<!DOCTYPE svg PUBLIC "-//W3C//DTD SVG 20010904//EN"
 "http://www.w3.org/TR/2001/REC-SVG-20010904/DTD/svg10.dtd">
<svg version="1.0" xmlns="http://www.w3.org/2000/svg"
 width="512.000000pt" height="512.000000pt" viewBox="0 0 512.000000 512.000000"
 preserveAspectRatio="xMidYMid meet">

<g transform="translate(0.000000,512.000000) scale(0.100000,-0.100000)"
fill="#000000" stroke="none">
<path d="M1067 3815 c-220 -62 -400 -115 -401 -117 -2 -2 31 -142 73 -313 76
-307 77 -310 101 -307 28 4 355 79 383 88 16 5 17 -45 17 -955 l0 -961 395 0
395 0 -2 1338 -3 1337 -280 2 -280 2 -398 -114z m878 -1230 l0 -1260 -310 0
-310 0 -3 971 -2 971 -208 -48 c-114 -27 -214 -48 -222 -49 -12 0 -29 56 -74
235 -32 130 -57 237 -55 239 2 1 164 48 359 104 l355 101 235 -2 235 -2 0
-1260z"/>
<path d="M2539 3878 c0 -18 -17 -327 -37 -686 -26 -444 -34 -656 -27 -661 5
-4 109 -63 231 -130 l220 -121 90 45 c127 64 233 89 356 83 84 -4 106 -9 162
-37 104 -51 146 -118 146 -233 0 -68 -36 -145 -86 -183 -88 -67 -268 -90 -414
-52 -100 26 -254 108 -367 196 l-102 80 -227 -266 c-182 -214 -225 -269 -217
-282 16 -26 142 -129 228 -186 154 -103 302 -166 495 -212 144 -34 453 -44
610 -19 429 68 734 320 826 684 92 362 -11 721 -266 924 -245 195 -670 252
-985 132 -9 -4 -11 8 -9 43 2 26 6 92 10 146 l6 97 579 0 579 0 0 335 0 335
-900 0 -900 0 -1 -32z m1721 -303 l0 -255 -577 -2 -578 -3 -13 -238 c-8 -131
-12 -241 -9 -243 2 -2 36 9 74 25 146 63 213 76 383 75 133 -1 169 -5 254 -28
394 -104 605 -392 582 -796 -22 -406 -266 -690 -682 -796 -246 -62 -582 -48
-834 36 -148 48 -328 152 -464 266 l-36 30 170 200 c94 109 176 203 183 208 8
5 39 -11 92 -48 281 -202 557 -256 772 -151 130 64 188 164 181 310 -4 61 -11
92 -31 131 -107 210 -435 256 -738 103 l-61 -30 -185 102 c-102 57 -187 109
-190 117 -6 14 55 1178 63 1220 l4 22 820 0 820 0 0 -255z"/>
</g>
</svg>
