<?xml version="1.0" standalone="no"?>
<!DOCTYPE svg PUBLIC "-//W3C//DTD SVG 20010904//EN"
 "http://www.w3.org/TR/2001/REC-SVG-20010904/DTD/svg10.dtd">
<svg version="1.0" xmlns="http://www.w3.org/2000/svg"
 width="512.000000pt" height="512.000000pt" viewBox="0 0 512.000000 512.000000"
 preserveAspectRatio="xMidYMid meet">

<g transform="translate(0.000000,512.000000) scale(0.100000,-0.100000)"
fill="#000000" stroke="none">
<path d="M4436 5104 c-134 -32 -43 55 -1999 -1902 l-1828 -1828 -108 -230
c-60 -127 -147 -312 -194 -410 -215 -453 -307 -655 -307 -673 0 -25 37 -61 62
-61 18 0 265 114 983 453 l330 156 1825 1825 c1455 1456 1832 1837 1857 1883
83 149 80 342 -7 487 -45 74 -202 227 -269 260 -104 53 -230 68 -345 40z m195
-128 c81 -18 133 -53 222 -144 112 -115 151 -221 126 -340 -20 -98 -52 -145
-202 -298 l-142 -145 -293 294 -293 293 144 141 c148 145 207 186 291 203 60
12 85 11 147 -4z m-384 -728 c156 -156 283 -287 283 -293 0 -5 -684 -694
-1520 -1530 -836 -836 -1520 -1513 -1520 -1505 0 8 14 58 30 110 34 109 36
136 13 162 -24 27 -58 23 -244 -33 -94 -28 -173 -48 -176 -46 -2 3 18 82 46
176 55 185 60 215 34 243 -22 25 -44 23 -161 -12 -56 -16 -107 -30 -114 -30
-7 0 671 684 1507 1520 836 836 1524 1520 1530 1520 5 0 137 -127 292 -282z
m-3255 -3054 c-83 -280 -78 -286 202 -202 108 32 186 50 186 44 -1 -21 -89
-309 -97 -317 -5 -5 -157 -79 -338 -164 l-329 -156 -109 109 -108 108 156 329
c85 181 159 333 164 338 9 9 286 94 312 96 14 1 7 -31 -39 -185z m-577 -784
c38 -38 67 -71 64 -74 -4 -4 -183 -89 -237 -113 -19 -8 -32 -10 -30 -6 3 4 31
65 64 136 32 70 61 127 64 127 3 0 37 -31 75 -70z"/>
</g>
</svg>
