<?xml version="1.0" standalone="no"?>
<!DOCTYPE svg PUBLIC "-//W3C//DTD SVG 20010904//EN"
 "http://www.w3.org/TR/2001/REC-SVG-20010904/DTD/svg10.dtd">
<svg version="1.0" xmlns="http://www.w3.org/2000/svg"
 width="900.000000pt" height="1000.000000pt" viewBox="0 0 900.000000 1000.000000"
 preserveAspectRatio="xMidYMid meet">

<g transform="translate(0.000000,1000.000000) scale(0.100000,-0.100000)"
fill="#000000" stroke="none">
<path d="M3896 8128 c-60 -4 -111 -9 -113 -12 -3 -2 44 -3 104 -3 59 1 293 -1
518 -5 410 -6 410 -6 190 7 -284 17 -562 22 -699 13z"/>
<path d="M3630 8095 c-53 -8 -70 -13 -45 -13 22 0 74 5 115 12 94 17 44 17
-70 1z"/>
<path d="M4877 8099 c34 -4 346 -10 695 -13 348 -3 667 -7 708 -10 l75 -5 -65
9 c-63 8 -1053 28 -1335 27 -114 0 -129 -2 -78 -8z"/>
<path d="M3478 8073 c12 -2 32 -2 45 0 12 2 2 4 -23 4 -25 0 -35 -2 -22 -4z"/>
<path d="M3388 8063 c12 -2 32 -2 45 0 12 2 2 4 -23 4 -25 0 -35 -2 -22 -4z"/>
<path d="M6528 8063 c12 -2 32 -2 45 0 12 2 2 4 -23 4 -25 0 -35 -2 -22 -4z"/>
<path d="M6618 8063 c12 -2 32 -2 45 0 12 2 2 4 -23 4 -25 0 -35 -2 -22 -4z"/>
<path d="M3323 8053 c9 -2 23 -2 30 0 6 3 -1 5 -18 5 -16 0 -22 -2 -12 -5z"/>
<path d="M6763 8053 c32 -2 81 -2 110 0 29 2 3 3 -58 3 -60 0 -84 -1 -52 -3z"/>
<path d="M7035 8051 c44 -4 73 -9 65 -12 -8 -4 -2 -5 14 -3 16 2 47 5 70 5 71
3 -67 17 -154 16 l-75 -1 80 -5z"/>
<path d="M3263 8043 c9 -2 23 -2 30 0 6 3 -1 5 -18 5 -16 0 -22 -2 -12 -5z"/>
<path d="M3148 8033 c6 -2 18 -2 25 0 6 3 1 5 -13 5 -14 0 -19 -2 -12 -5z"/>
<path d="M3043 8023 c15 -2 39 -2 55 0 15 2 2 4 -28 4 -30 0 -43 -2 -27 -4z"/>
<path d="M7048 8023 c7 -3 16 -2 19 1 4 3 -2 6 -13 5 -11 0 -14 -3 -6 -6z"/>
<path d="M2978 8013 c7 -3 16 -2 19 1 4 3 -2 6 -13 5 -11 0 -14 -3 -6 -6z"/>
<path d="M6993 8013 c9 -2 23 -2 30 0 6 3 -1 5 -18 5 -16 0 -22 -2 -12 -5z"/>
<path d="M2913 8003 c9 -2 25 -2 35 0 9 3 1 5 -18 5 -19 0 -27 -2 -17 -5z"/>
<path d="M6919 8006 c-2 -2 -42 -7 -89 -10 -126 -9 -311 -39 -302 -48 5 -5 42
-2 83 7 41 9 125 20 188 26 63 6 122 14 130 19 9 5 11 10 5 10 -6 0 -13 -2
-15 -4z"/>
<path d="M2808 7993 c12 -2 30 -2 40 0 9 3 -1 5 -23 4 -22 0 -30 -2 -17 -4z"/>
<path d="M2733 7983 c9 -2 23 -2 30 0 6 3 -1 5 -18 5 -16 0 -22 -2 -12 -5z"/>
<path d="M2573 7963 c15 -2 37 -2 50 0 12 2 0 4 -28 4 -27 0 -38 -2 -22 -4z"/>
<path d="M6332 7940 c-79 -11 -174 -26 -211 -34 -37 -9 -129 -20 -204 -26
-136 -10 -179 -19 -192 -40 -7 -11 -527 -8 -765 5 -52 3 -261 10 -465 15 -203
6 -500 15 -660 20 -159 6 -366 9 -460 8 l-170 -1 195 -8 c107 -4 285 -10 395
-13 110 -3 270 -8 355 -11 148 -6 210 -8 650 -19 518 -14 839 -28 883 -37 43
-10 50 -16 72 -60 20 -38 25 -64 25 -118 0 -63 -2 -70 -22 -77 -32 -11 -518
-6 -603 6 -38 5 -299 14 -580 20 -280 6 -516 13 -523 15 -7 3 -92 5 -190 5
-97 1 -242 5 -322 10 -80 5 -278 12 -440 15 -162 3 -376 7 -475 10 -99 3 -238
7 -310 10 -71 2 -174 7 -229 11 l-99 7 6 81 c3 46 1 72 -3 61 -5 -11 -9 -50
-9 -87 -1 -68 -1 -68 27 -68 15 0 44 -3 64 -6 l37 -6 -1 -337 c-1 -185 2 -543
6 -796 4 -253 9 -773 12 -1155 2 -382 6 -802 8 -932 2 -131 1 -240 -2 -242 -4
-2 -101 2 -216 10 -187 13 -212 13 -233 -1 l-23 -15 1 -453 c1 -248 4 -492 8
-542 4 -49 5 101 3 335 -5 411 5 651 28 665 13 8 344 -15 350 -24 8 -11 2853
-219 2867 -209 6 5 29 6 50 3 79 -14 73 0 73 -171 0 -95 -4 -154 -10 -155 -5
-1 -13 -2 -17 -3 -5 -1 -50 -5 -100 -10 l-93 -8 0 -47 0 -48 83 -6 c51 -4 83
-3 85 3 4 12 42 13 60 2 10 -7 11 -228 4 -1160 -4 -633 -10 -1154 -14 -1157
-6 -6 -28 -12 -58 -15 -10 -1 -9 -4 5 -10 11 -4 24 -4 30 1 21 20 35 8 35 -30
0 -45 -8 -52 -59 -58 -59 -7 -50 -15 12 -11 l57 3 0 -56 c0 -31 -3 -90 -6
-131 -5 -59 -10 -75 -23 -75 -13 -1 -3031 307 -3262 332 l-56 7 -6 315 c-4
174 -7 370 -7 435 l0 118 -27 -1 c-17 -1 -21 -3 -10 -6 16 -4 17 -28 17 -326
0 -413 6 -516 31 -542 16 -16 52 -23 216 -42 109 -12 205 -22 214 -23 9 0 20
-10 24 -22 6 -21 8 -21 12 -4 4 15 11 17 46 12 23 -3 134 -13 247 -22 113 -9
206 -17 208 -19 12 -11 -16 -58 -44 -76 -26 -16 -34 -27 -34 -50 0 -17 -5 -29
-12 -29 -7 0 -76 7 -153 15 -77 8 -159 15 -182 15 -68 0 -73 5 -74 74 l-2 61
-8 -45 c-17 -100 -21 -95 89 -108 53 -6 149 -17 212 -23 63 -6 123 -15 133
-20 14 -7 17 -5 17 13 1 57 -33 58 666 -10 452 -43 650 -66 656 -74 4 -7 8
-32 8 -55 0 -34 -4 -43 -17 -43 -54 -1 -1301 133 -1315 141 -21 11 -24 3 -5
-15 8 -9 13 -64 15 -182 2 -93 5 -170 5 -170 1 -1 331 -38 732 -83 402 -44
742 -83 758 -86 l27 -4 0 187 1 187 196 90 196 91 176 -23 c97 -12 177 -22
179 -23 1 0 2 -40 2 -89 l0 -89 67 -7 c36 -4 76 -11 87 -16 42 -18 363 -48
401 -38 l35 10 0 130 0 129 35 17 35 17 35 -40 c33 -37 35 -42 32 -108 -2 -72
-6 -79 -57 -90 -14 -3 -36 -15 -50 -27 l-25 -21 27 16 c15 9 40 16 56 16 15 0
37 7 48 15 10 8 26 14 34 14 8 0 73 29 143 63 l128 63 -3 87 c-2 72 -7 92 -26
118 -23 30 -23 32 -5 45 10 8 29 19 43 26 14 6 32 15 40 20 8 5 38 20 65 32
28 13 127 61 220 107 94 45 215 104 270 131 55 27 105 49 112 49 6 0 13 6 16
14 6 16 -92 -24 -164 -67 -25 -15 -54 -27 -65 -27 -16 0 -57 -21 -189 -93 -16
-9 -106 -53 -200 -97 -93 -45 -186 -89 -205 -98 -19 -9 -37 -20 -40 -23 -3 -4
-36 -19 -75 -34 -38 -15 -77 -34 -86 -41 -8 -8 -19 -14 -23 -14 -4 0 -32 -12
-63 -26 -36 -17 -58 -23 -62 -16 -3 6 -5 298 -4 649 3 940 13 2811 20 4008 3
578 5 1266 4 1530 -1 266 2 486 7 493 7 11 188 32 275 33 10 0 50 7 90 15 83
17 130 24 397 58 107 14 245 35 305 46 131 25 318 56 395 65 54 6 151 43 118
44 -10 1 -86 -11 -170 -25 -84 -14 -193 -31 -243 -39 -49 -7 -128 -20 -175
-29 -47 -8 -139 -22 -205 -31 -123 -16 -217 -32 -388 -66 -54 -11 -102 -17
-106 -15 -4 3 -11 42 -14 88 -6 68 -12 91 -37 131 -16 27 -30 52 -30 57 0 13
18 17 135 29 128 14 181 22 405 56 91 13 182 25 203 25 20 0 37 5 37 10 0 12
-2 12 -178 -10z m-3802 -335 c113 -4 252 -8 310 -10 97 -4 229 -9 545 -20 225
-8 710 -25 865 -30 85 -3 223 -7 305 -10 83 -3 220 -8 305 -10 188 -5 452 -15
500 -20 19 -2 59 -4 89 -4 l54 -1 -7 -797 c-4 -439 -10 -969 -12 -1178 -3
-209 -7 -621 -9 -915 -8 -1018 -14 -1626 -20 -1935 -3 -170 -8 -699 -11 -1175
-5 -848 -7 -947 -22 -962 -9 -9 -399 37 -509 61 -2 1 -3 37 -3 81 l0 80 45 0
c24 0 60 8 80 17 l35 17 2 350 c1 193 3 387 3 431 5 313 18 2156 17 2218 -1
44 -8 89 -14 100 -7 12 -11 25 -10 29 1 3 -5 11 -12 18 -12 9 -2212 180 -2784
216 -68 4 -115 11 -117 18 -2 6 -7 355 -10 776 -3 421 -8 898 -11 1060 -9 467
-9 1584 0 1598 6 10 31 12 99 8 51 -3 184 -8 297 -11z m2530 -4055 c0 -39 -1
-40 -35 -40 -34 0 -35 1 -35 40 0 39 1 40 35 40 34 0 35 -1 35 -40z m-80 -10
l0 -41 -72 3 -73 3 -3 32 c-4 36 5 39 96 42 l52 1 0 -40z m-1565 -2615 c330
-36 610 -68 623 -71 29 -6 26 -40 -3 -37 -155 16 -1283 146 -1292 148 -7 3
-10 11 -6 21 4 12 14 15 42 11 20 -3 306 -35 636 -72z m-54 -50 c316 -36 591
-65 610 -65 19 0 40 -4 47 -9 21 -13 -12 -34 -45 -27 -29 6 -1260 136 -1287
136 -9 0 -16 5 -16 10 0 17 42 30 80 25 19 -3 294 -34 611 -70z m2532 43 c26
-35 39 -188 16 -188 -8 0 -45 -17 -84 -37 -128 -67 -160 -82 -172 -83 -9 0
-13 20 -13 70 0 54 3 70 14 70 8 0 17 4 20 9 3 4 -5 6 -18 4 -17 -4 -29 3 -45
22 -11 15 -21 31 -21 36 0 5 39 27 88 49 48 22 103 49 122 60 44 25 68 22 93
-12z m-1765 -354 l4 -285 -44 6 c-65 9 -1405 155 -1423 155 -12 0 -15 13 -15
60 0 40 4 60 12 60 21 0 1311 -119 1356 -125 l42 -6 0 89 c0 49 3 144 7 210
l6 122 26 0 26 0 3 -286z m197 261 c66 -8 121 -15 123 -15 1 0 2 -4 2 -9 0
-11 -289 -145 -297 -138 -3 4 -2 45 2 92 8 99 -9 92 170 70z m-269 -81 c-3 -9
-6 -76 -6 -151 0 -120 -2 -134 -16 -129 -9 3 -324 32 -700 63 l-684 57 0 83 0
83 43 -6 c23 -2 314 -31 647 -64 333 -33 613 -62 623 -64 15 -4 17 4 17 59 0
69 11 84 59 85 17 0 22 -4 17 -16z"/>
<path d="M5845 855 c-27 -13 -44 -24 -37 -24 14 -1 92 37 92 44 0 6 4 8 -55
-20z"/>
<path d="M5749 803 c-13 -16 -12 -17 4 -4 9 7 17 15 17 17 0 8 -8 3 -21 -13z"/>
<path d="M2453 7943 c9 -2 25 -2 35 0 9 3 1 5 -18 5 -19 0 -27 -2 -17 -5z"/>
<path d="M2308 7930 c-14 -4 -72 -10 -127 -14 -100 -5 -161 -22 -177 -47 -6
-12 -5 -12 9 0 9 7 17 11 17 7 0 -4 10 0 23 8 15 10 71 16 186 21 90 4 158 11
150 15 -8 6 -3 10 17 13 17 2 9 4 -21 5 -27 0 -62 -3 -77 -8z"/>
<path d="M2530 7910 c0 -5 5 -10 10 -10 6 0 10 5 10 10 0 6 -4 10 -10 10 -5 0
-10 -4 -10 -10z"/>
<path d="M7291 7904 c0 -11 3 -14 6 -6 3 7 2 16 -1 19 -3 4 -6 -2 -5 -13z"/>
<path d="M2561 7906 c2 -2 130 -5 284 -8 158 -3 232 -2 170 2 -116 8 -461 13
-454 6z"/>
<path d="M7293 7835 c0 -22 2 -30 4 -17 2 12 2 30 0 40 -3 9 -5 -1 -4 -23z"/>
<path d="M7223 7781 c-24 -4 -45 -10 -49 -13 -8 -8 75 3 101 13 24 9 6 9 -52
0z"/>
<path d="M7128 7763 c6 -2 18 -2 25 0 6 3 1 5 -13 5 -14 0 -19 -2 -12 -5z"/>
<path d="M7102 7645 c0 -55 -3 -144 -7 -197 -5 -64 -4 -98 2 -98 14 0 26 326
14 365 -7 23 -9 8 -9 -70z"/>
<path d="M7104 7195 c0 -71 1 -99 3 -62 2 37 2 96 0 130 -2 34 -3 4 -3 -68z"/>
<path d="M7093 6845 c0 -22 2 -30 4 -17 2 12 2 30 0 40 -3 9 -5 -1 -4 -23z"/>
<path d="M7081 6734 c0 -11 3 -14 6 -6 3 7 2 16 -1 19 -3 4 -6 -2 -5 -13z"/>
<path d="M7089 6563 c0 -60 -2 -277 -4 -483 -2 -206 -9 -946 -15 -1645 -5
-698 -12 -1421 -14 -1605 -14 -1051 -12 -1379 8 -1219 3 24 8 413 10 864 3
451 8 1117 11 1480 11 1377 16 2715 11 2715 -3 0 -6 -48 -7 -107z"/>
<path d="M1859 3947 c-44 -33 -44 -37 -45 -567 -1 -459 -1 -479 6 -215 4 160
11 362 14 449 3 88 6 191 6 229 0 56 3 68 14 64 8 -3 54 -8 103 -11 66 -4 78
-3 48 4 -22 5 -61 9 -87 9 -51 1 -64 17 -22 27 24 6 2781 -193 2796 -202 3 -2
9 0 12 5 4 5 -21 12 -56 15 -58 6 -1854 137 -2048 150 -239 16 -380 26 -425
31 -27 2 -93 7 -145 10 -52 4 -108 8 -125 10 -16 2 -37 -2 -46 -8z"/>
<path d="M2060 3890 c8 -5 40 -9 70 -9 l55 1 -40 9 c-58 12 -104 11 -85 -1z"/>
<path d="M2196 3881 c14 -13 385 -39 372 -26 -3 4 -341 35 -377 35 -3 0 -1 -4
5 -9z"/>
<path d="M2580 3853 c0 -7 832 -76 885 -72 50 3 -40 17 -151 24 -65 3 -137 8
-159 10 -22 2 -132 11 -245 19 -113 9 -233 18 -267 22 -35 3 -63 2 -63 -3z"/>
<path d="M3490 3782 c0 -10 1167 -100 1182 -91 16 10 -31 14 -632 59 -614 46
-550 42 -550 32z"/>
<path d="M4719 3687 c-11 -8 -14 -18 -8 -32 4 -11 8 -57 8 -102 1 -65 -2 -83
-13 -83 -9 0 -15 -15 -18 -45 -4 -61 -2 -65 44 -65 l40 0 -5 -427 c-4 -236 -6
-696 -7 -1024 l0 -597 -34 -6 c-28 -5 -35 -12 -40 -37 -10 -50 -8 -57 24 -76
l30 -17 0 -103 c0 -70 -4 -103 -11 -103 -7 0 -624 58 -1373 129 -1297 124
-1468 140 -1491 141 -7 0 -10 198 -10 573 l0 573 30 20 c21 14 30 28 31 49 11
218 4 255 -56 285 -28 14 -40 27 -40 43 -1 21 -1 21 -15 3 -12 -16 -18 -17
-42 -7 -30 12 -93 11 -93 -1 0 -5 7 -8 16 -8 14 0 14 -3 4 -15 -16 -19 -2 -19
20 0 14 13 19 13 35 1 18 -13 18 -15 2 -40 -13 -19 -26 -26 -50 -27 l-32 -1
28 -10 c26 -9 31 -7 59 26 16 20 38 36 49 36 18 0 19 -2 5 -28 -8 -16 -18 -76
-22 -137 -6 -101 -9 -111 -35 -140 -16 -16 -29 -36 -29 -42 0 -7 -9 -13 -20
-13 -11 0 -20 6 -21 13 -1 24 -19 -36 -60 -194 -22 -88 -39 -167 -37 -176 2
-9 23 66 48 166 l45 183 32 -4 c20 -2 33 0 33 7 0 6 11 22 25 35 21 19 30 22
43 14 16 -10 17 -58 20 -613 1 -330 4 -601 5 -601 11 0 1522 -147 2586 -251
307 -30 324 -31 333 -14 6 9 10 66 9 126 l-2 109 63 2 63 1 -75 7 c-84 7 -125
23 -116 47 3 8 6 23 6 33 0 25 32 30 81 13 23 -7 52 -12 63 -10 17 3 14 6 -12
12 -21 5 -34 15 -37 29 -2 11 -6 474 -9 1028 l-5 1006 50 7 c27 4 47 11 44 16
-3 4 -12 6 -21 2 -8 -3 -44 -2 -79 2 l-65 7 0 35 0 36 90 -6 c55 -3 88 -2 85
4 -4 5 -18 9 -33 9 -15 0 -44 3 -64 6 l-38 7 -1 76 c0 42 -3 93 -7 113 -6 31
-9 35 -23 25z m-2825 -1059 c12 -88 1 -154 -28 -173 -33 -22 -54 -9 -63 38
-12 60 2 185 23 208 15 17 20 18 38 6 16 -11 23 -31 30 -79z"/>
<path d="M2710 3609 c-63 -4 -162 -17 -220 -28 -58 -12 -123 -24 -145 -27 -21
-3 -44 -8 -50 -12 -5 -4 -14 -7 -20 -7 -17 -1 -79 -17 -90 -23 -5 -3 -18 -7
-30 -8 -11 -1 -33 -8 -50 -15 -16 -7 -33 -12 -37 -11 -5 1 -8 -2 -8 -8 0 -16
20 -13 230 40 136 34 255 57 377 71 175 21 182 22 418 6 347 -24 547 -56 786
-128 214 -64 280 -87 440 -154 59 -25 113 -45 120 -45 15 0 16 -23 3 -1295
l-6 -680 -57 2 c-165 6 -2242 196 -2283 209 -16 5 -18 19 -18 102 1 95 -3 427
-16 1389 -5 398 -9 481 -20 476 -11 -4 -13 -170 -7 -1001 3 -549 6 -998 7
-999 2 -2 1010 -88 1256 -107 94 -8 313 -26 360 -31 179 -17 802 -66 805 -63
6 5 28 1985 23 1999 -4 11 -119 61 -148 64 -3 0 -14 6 -25 12 -16 8 -79 32
-105 38 -5 2 -55 24 -125 55 -32 14 -195 61 -257 74 -7 2 -20 6 -28 9 -65 26
-263 65 -420 82 -129 15 -522 23 -660 14z"/>
<path d="M4978 3463 c7 -3 16 -2 19 1 4 3 -2 6 -13 5 -11 0 -14 -3 -6 -6z"/>
<path d="M1609 2751 c-22 -17 -24 -29 -27 -113 -4 -109 7 -149 40 -147 l23 2
-22 4 c-22 4 -23 9 -23 99 0 73 4 104 19 134 11 22 18 40 16 40 -1 0 -13 -9
-26 -19z"/>
<path d="M1723 2270 c0 -25 2 -35 4 -22 2 12 2 32 0 45 -2 12 -4 2 -4 -23z"/>
<path d="M1713 2140 c0 -25 2 -35 4 -22 2 12 2 32 0 45 -2 12 -4 2 -4 -23z"/>
<path d="M1701 2034 c0 -11 3 -14 6 -6 3 7 2 16 -1 19 -3 4 -6 -2 -5 -13z"/>
<path d="M6872 1468 c-24 -11 -42 -21 -40 -23 7 -7 82 23 86 34 4 13 7 14 -46
-11z"/>
<path d="M7052 1435 l-92 -44 2 -68 1 -68 6 65 6 65 70 37 c39 20 78 37 88 38
9 0 17 5 17 10 0 14 4 15 -98 -35z"/>
<path d="M7153 1405 c0 -27 2 -38 4 -22 2 15 2 37 0 50 -2 12 -4 0 -4 -28z"/>
<path d="M7136 1323 c-6 -14 -5 -15 5 -6 7 7 10 15 7 18 -3 3 -9 -2 -12 -12z"/>
<path d="M7095 1300 c-3 -6 1 -7 9 -4 18 7 21 14 7 14 -6 0 -13 -4 -16 -10z"/>
<path d="M4928 1287 c-24 -9 -28 -16 -26 -46 1 -36 1 -36 5 -4 3 23 10 33 29
37 13 4 24 11 24 16 0 6 -1 10 -2 9 -2 -1 -15 -6 -30 -12z"/>
<path d="M4977 1292 c6 -4 13 -23 16 -42 4 -33 4 -33 5 8 2 34 -1 42 -15 42
-12 0 -14 -3 -6 -8z"/>
<path d="M6651 1284 c0 -11 3 -14 6 -6 3 7 2 16 -1 19 -3 4 -6 -2 -5 -13z"/>
<path d="M6993 1257 c-18 -6 -33 -14 -33 -19 0 -9 58 11 66 23 3 5 4 8 2 8 -2
-1 -18 -7 -35 -12z"/>
<path d="M4935 1190 l-30 -8 30 -1 c17 0 37 4 45 9 13 9 13 10 0 9 -8 -1 -28
-5 -45 -9z"/>
<path d="M4822 1098 l1 -53 6 45 6 45 50 6 50 6 -57 1 -58 2 2 -52z"/>
</g>
</svg>
